<?xml version="1.0" encoding="utf-8"?>
<!-- Generator: Adobe Illustrator 27.0.1, SVG Export Plug-In . SVG Version: 6.00 Build 0)  -->
<svg version="1.1" id="Laag_1" xmlns="http://www.w3.org/2000/svg" xmlns:xlink="http://www.w3.org/1999/xlink" x="0px" y="0px"
	 viewBox="0 0 600 400" style="enable-background:new 0 0 600 400;" xml:space="preserve">
<style type="text/css">
	.st0{fill:#23253C;}
	.st1{display:none;}
	.st2{display:inline;fill:#E6A06C;}
	.st3{display:inline;fill:#FEDEA3;}
	.st4{display:inline;fill:#747780;}
	.st5{display:inline;fill:#9CA7D0;}
	.st6{display:inline;fill:#FFFFFF;}
	.st7{display:inline;fill:#B7C06F;}
	.st8{display:inline;fill:#B7D8F7;}
	.st9{display:inline;fill:#A6A056;}
	.st10{display:inline;}
	.st11{fill:#B7C06F;}
	.st12{display:inline;fill:#D9B4A3;}
	.st13{display:inline;fill:#331338;}
	.st14{display:inline;fill:#C48163;}
	.st15{display:inline;fill:#D4A189;}
	.st16{fill:#F9F8F6;}
	.st17{display:inline;fill:#F5CBB8;}
	.st18{fill:#F5CBB8;}
	.st19{display:inline;fill:#EDE0DA;}
	.st20{fill:#3D404C;}
	.st21{fill:#18191E;}
	.st22{fill:#868CA1;}
	.st23{fill:#FFFFFF;}
	.st24{fill:#52568C;}
	.st25{fill:#A1C8B1;}
	.st26{fill:#FEDEA3;}
	.st27{fill:#E45B7E;}
	.st28{fill:#FEE8BF;}
	.st29{fill:#7381C6;}
	.st30{fill:#DBA178;}
	.st31{display:inline;fill:#312823;}
	.st32{fill:#9CA7D0;}
	.st33{fill:#797F97;}
</style>
<rect x="111.4" y="16.6" class="st0" width="376" height="256.1"/>
<g id="books" class="st1">
	<path class="st2" d="M492.6,279.3H370.4c-1.3,0-2.4-1.1-2.4-2.4v-22.6c0-1.3,1.1-2.4,2.4-2.4h122.2c1.3,0,2.4,1.1,2.4,2.4v22.6
		C495,278.3,493.9,279.3,492.6,279.3z"/>
	<path class="st3" d="M467.1,251.9h-98c-0.8,0-1.5-0.7-1.5-1.5v-14.3c0-0.8,0.7-1.5,1.5-1.5h98c0.8,0,1.5,0.7,1.5,1.5v14.3
		C468.6,251.2,467.9,251.9,467.1,251.9z"/>
	
		<rect x="168" y="185.2" transform="matrix(0.6869 -0.7267 0.7267 0.6869 -121.7344 202.4827)" class="st4" width="12.2" height="114.7"/>
	<rect x="449.8" y="234.7" class="st5" width="7.9" height="17.2"/>
	<rect x="471.7" y="251.9" class="st6" width="11.4" height="27.4"/>
	<path class="st5" d="M136.3,265.8h-16.2c-1.2,0-2.2-1-2.2-2.1V153.3c0-1.2,1-2.1,2.2-2.1h16.2c1.2,0,2.1,1,2.1,2.1v110.4
		C138.4,264.9,137.5,265.8,136.3,265.8z"/>
	<path class="st7" d="M115.8,265.8H99.6c-1.2,0-2.2-1-2.2-2.1V198c0-1.2,1-2.1,2.2-2.1h16.2c1.2,0,2.2,1,2.2,2.1v65.7
		C117.9,264.9,116.9,265.8,115.8,265.8z"/>
	<path class="st2" d="M186.1,268v16.2c0,1.2-1,2.1-2.1,2.1h-102c-1.2,0-2.2-1-2.2-2.1V268c0-1.2,1-2.1,2.2-2.1h102
		C185.1,265.8,186.1,266.8,186.1,268z"/>
	<rect x="152.3" y="265.8" class="st3" width="10.6" height="20.5"/>
	<rect x="97.4" y="249.8" class="st8" width="20.5" height="5.6"/>
	<rect x="117.9" y="242.2" class="st6" width="20.5" height="9.5"/>
</g>
<g id="flower" class="st1">
	<path class="st9" d="M424.5,192.5c3.2-3.1-0.8-52.3-27.2-79.9c-39.8-41.7-74.1-56.1-92.8-57.4c-14.6-1.1-18.4,7.5-5.3,10.7
		c13.1,3.2,22.5,10.9,20.1,24c-2.5,13,7.1,18.9,15.9,15s26.5-7.6,33.6,13s-1.8,41.4,18.5,49.2c20.3,7.8,23,36.3,23,36.3L424.5,192.5
		z"/>
	<path class="st9" d="M427.6,186.7c1.7-1.4,13.5-24.9,13.5-48.8c0-29.6-16.6-42.5-36.5-60.2c-12.9-11.4,10.9-39.8-4.5-46.6
		c-15.4-6.8-38,18.5-33.5,33.5s20.1,12.2,24.4,28c2,7.6-12.2,17.6-4.2,30.3c7.2,11.6,30.6-0.7,28.4,33.2c-1.5,24-5.1,29.8-5.1,29.8
		L427.6,186.7z"/>
	<g class="st10">
		<path class="st11" d="M420.1,186.8c-0.1,0-0.1,0-0.2,0c-0.2-0.1-0.4-0.4-0.3-0.7c0.2-0.4,16.8-39.3,7.5-64.8
			c-5.7-15.5-17-26.3-27.9-36.7c-4.6-4.4-9-8.6-12.9-13.1c-11.9-13.6,3.9-32.6,4-32.8c0.2-0.2,0.5-0.2,0.7-0.1
			c0.2,0.2,0.2,0.5,0.1,0.7c-0.2,0.2-15.3,18.5-4,31.5c3.9,4.4,8.2,8.6,12.8,13c11,10.5,22.3,21.3,28.1,37.1
			c9.5,25.8-7.4,65.1-7.5,65.5C420.5,186.7,420.3,186.8,420.1,186.8z"/>
	</g>
	<path class="st7" d="M427.6,186.7c0,0-12-32.4,0.6-43.9s22.7-7.8,21.2-35.3c-1.3-24.7,9.9-24.1,12.4-17.8c1.6,4,8.1,32.1,0.9,44.2
		c-7.2,12.2-22.5,11.8-21.7,34s0,28.8,0,28.8L427.6,186.7z"/>
	<g class="st10">
		<path class="st11" d="M431.2,179.4c-0.1,0-0.1,0-0.2,0c-0.2-0.1-0.4-0.4-0.3-0.6c7.4-17.8,13.6-23.4,18.7-26.4
			c5.6-3.4,9.5-2,13.7-0.6c2.2,0.8,4.6,1.6,7.4,1.8c2.4,0.2,4.3-0.4,5.7-1.6c2.7-2.4,3.3-7.1,3.5-11c0.8-13.6,7.7-25.5,14.3-36.9
			c8.6-14.7,16.6-28.6,13.1-46.1c0-0.3,0.1-0.5,0.4-0.6c0.3-0.1,0.5,0.1,0.6,0.4c3.6,17.9-5,32.6-13.2,46.8
			c-6.6,11.3-13.4,23-14.2,36.5c-0.2,4.1-0.9,9-3.9,11.7c-1.6,1.4-3.8,2.1-6.5,1.9c-3-0.2-5.3-1-7.6-1.9c-4.1-1.4-7.6-2.7-12.8,0.5
			c-5,3-11,8.4-18.3,25.9C431.6,179.3,431.4,179.4,431.2,179.4z"/>
	</g>
	<path class="st12" d="M463.1,169.2l-2,16.3l-6.1,49.3h-61.1l-8.1-65.5h0c0-1.3,17.2-2.4,38.5-2.4c5.5,0,10.7,0.1,15.4,0.2
		c0,0,0.1,0,0.1,0c13.5,0.4,22.9,1.2,22.9,2.2L463.1,169.2L463.1,169.2z"/>
	<g class="st10">
		<path class="st11" d="M401.9,174.2c-0.2,0-0.5-0.2-0.5-0.4c-6.1-45.6-32.8-74-54.1-89.7c-23.1-17-45-23.3-45.2-23.4
			c-0.3-0.1-0.4-0.3-0.4-0.6s0.4-0.4,0.6-0.3c0.2,0.1,22.3,6.4,45.5,23.6c21.5,15.8,48.3,44.3,54.5,90.3
			C402.4,173.9,402.2,174.1,401.9,174.2C401.9,174.2,401.9,174.2,401.9,174.2z"/>
	</g>
	<path class="st13" d="M463.1,169.2l-2,16.3c-2.1-1-4-2.6-5.2-5.4c-4.5-10-14.2-12.8-16-13c13.5,0.4,22.9,1.2,22.9,2.2L463.1,169.2
		L463.1,169.2z"/>
</g>
<g id="a_cup" class="st1">
	<path class="st14" d="M111.4,316.4c0,3.1-10.4,5.6-23.3,5.6s-23.3-2.5-23.3-5.6s10.4-5.6,23.3-5.6S111.4,313.3,111.4,316.4z"/>
	<ellipse class="st15" cx="88.1" cy="310.8" rx="44.8" ry="8.1"/>
	<g class="st10">
		<path class="st16" d="M88.1,317.7c-19.6,0-39.9-2.6-39.9-6.9s20.3-6.9,39.9-6.9s39.9,2.6,39.9,6.9
			C128,315.1,107.7,317.7,88.1,317.7z M88.1,304.5c-23.6,0-39.4,3.3-39.4,6.4s15.9,6.4,39.4,6.4s39.4-3.3,39.4-6.4
			C127.5,307.8,111.7,304.5,88.1,304.5z"/>
	</g>
	<ellipse class="st14" cx="92.4" cy="310.8" rx="22.7" ry="4.8"/>
	<path class="st17" d="M89.6,313.6h-3c-9.9,0-18.2-7.5-19.3-17.3l-1.8-16.6h45.2l-1.8,16.6C107.8,306.1,99.5,313.6,89.6,313.6z"/>
	<g class="st10">
		<path class="st18" d="M78.2,303H67.5c-4.9,0-8.9-4-8.9-8.9v-3.4c0-4.9,4-8.9,8.9-8.9h10.7C78.2,281.8,78.2,303,78.2,303z
			 M67.5,286.8c-2.1,0-3.9,1.7-3.9,3.9v3.4c0,2.1,1.7,3.9,3.9,3.9h5.7v-11.2L67.5,286.8L67.5,286.8z"/>
	</g>
	<ellipse class="st19" cx="88.1" cy="279.7" rx="22.7" ry="2"/>
</g>
<g id="laptop">
	<path class="st20" d="M543.9,400H54.2c-11.7,0-21.1-9.5-21.1-21.1l0,0h532l0,0C565,390.5,555.6,400,543.9,400z"/>
	<g>
		<path class="st20" d="M486.5,6.5H114.9c-7.4,0-13.4,6-13.4,13.4v250.6c0,7.4,6,13.4,13.4,13.4h371.6c7.4,0,13.4-6,13.4-13.4V19.9
			C500,12.5,493.9,6.5,486.5,6.5z M486.2,257.1c0,6.8-5.5,12.3-12.3,12.3H127.5c-6.8,0-12.3-5.5-12.3-12.3V33.5
			c0-6.8,5.5-12.3,12.3-12.3h346.5c6.8,0,12.3,5.5,12.3,12.3L486.2,257.1L486.2,257.1z"/>
		<g>
			<path class="st21" d="M305.2,14c0,2.4-2,4.4-4.4,4.4s-4.4-2-4.4-4.4s2-4.4,4.4-4.4S305.2,11.6,305.2,14z"/>
			<path class="st21" d="M292,14c0,1.5-1.2,2.7-2.6,2.7c-1.5,0-2.6-1.2-2.6-2.7s1.2-2.6,2.6-2.6S292,12.5,292,14z"/>
			<path class="st21" d="M315,14c0,1.5-1.2,2.7-2.6,2.7c-1.5,0-2.6-1.2-2.6-2.7s1.2-2.6,2.6-2.6S315,12.5,315,14z"/>
		</g>
	</g>
	<g>
		<path class="st22" d="M198.7,381.3c-0.9,0-1.6-0.1-2.4-0.2c-0.7-0.1-1.3-0.3-1.8-0.5c-0.5-0.2-0.9-0.4-1.1-0.7
			c-0.2-0.3-0.3-0.6-0.2-0.9l11.8-41.7c0.1-0.2,0.3-0.5,0.6-0.7s0.8-0.4,1.3-0.5c0.5-0.2,1.1-0.3,1.8-0.4c0.7-0.1,1.4-0.1,2.1-0.1
			l176.2,0c0,0,0,0,0,0c0,0,0,0,0,0c0,0,0,0,0,0c0,0,0,0,0,0c0.8,0,1.5,0,2.1,0.1c0.7,0.1,1.3,0.2,1.8,0.4s1,0.3,1.3,0.5
			s0.5,0.4,0.6,0.7l12,41.7c0.1,0.3,0,0.6-0.2,0.9c-0.2,0.3-0.6,0.5-1.1,0.7c-0.5,0.2-1.1,0.4-1.8,0.5c-0.7,0.1-1.5,0.2-2.4,0.2
			L198.7,381.3L198.7,381.3z M425.8,331.8c-0.2,0-0.5,0-0.7,0s-0.4-0.1-0.6-0.1s-0.3-0.1-0.4-0.2c-0.1-0.1-0.2-0.1-0.2-0.2l-1.2-3.1
			c0-0.1,0-0.1,0-0.2s0.2-0.1,0.3-0.2c0.1,0,0.3-0.1,0.5-0.1s0.4,0,0.6,0h22.4c0.2,0,0.5,0,0.6,0c0.2,0,0.4,0.1,0.6,0.1
			s0.3,0.1,0.4,0.2c0.1,0.1,0.2,0.1,0.2,0.2l1.4,3.1c0,0.1,0,0.1,0,0.2s-0.1,0.1-0.3,0.2c-0.1,0-0.3,0.1-0.5,0.1c-0.2,0-0.4,0-0.6,0
			H425.8L425.8,331.8z M455.2,331.8c-0.2,0-0.5,0-0.7,0s-0.4-0.1-0.6-0.1c-0.2,0-0.3-0.1-0.4-0.2c-0.1-0.1-0.2-0.1-0.2-0.2l-1.5-3.1
			c0-0.1,0-0.1,0-0.2s0.1-0.1,0.3-0.2c0.1,0,0.3-0.1,0.5-0.1c0.2,0,0.4,0,0.6,0h22.4c0.2,0,0.5,0,0.7,0s0.4,0.1,0.6,0.1
			c0.2,0,0.3,0.1,0.4,0.2s0.2,0.1,0.2,0.2l1.7,3.1c0,0.1,0,0.1,0,0.2s-0.1,0.1-0.3,0.2c-0.1,0-0.3,0.1-0.5,0.1c-0.2,0-0.4,0-0.6,0
			H455.2L455.2,331.8z M484.3,331.8c-0.2,0-0.5,0-0.7,0s-0.4-0.1-0.6-0.1s-0.3-0.1-0.5-0.2c-0.1-0.1-0.2-0.1-0.2-0.2l-1.8-3.1
			c0-0.1,0-0.1,0-0.2s0.1-0.1,0.3-0.2c0.1,0,0.3-0.1,0.5-0.1s0.4,0,0.6,0h22.4c0.2,0,0.5,0,0.7,0c0.2,0,0.4,0.1,0.6,0.1
			s0.3,0.1,0.5,0.2c0.1,0.1,0.2,0.1,0.2,0.2l2,3.1c0,0.1,0,0.1,0,0.2s-0.1,0.1-0.2,0.2c-0.1,0-0.3,0.1-0.5,0.1s-0.4,0-0.6,0H484.3
			L484.3,331.8z M92.6,331.9c-0.3,0-0.6,0-0.8,0c-0.2,0-0.4-0.1-0.6-0.1c-0.2-0.1-0.3-0.1-0.3-0.2s-0.1-0.2,0-0.2l4.2-6.6
			c0.1-0.1,0.2-0.2,0.3-0.2c0.2-0.1,0.3-0.1,0.6-0.2s0.5-0.1,0.7-0.1s0.5,0,0.8,0h21.2c0.3,0,0.5,0,0.8,0c0.2,0,0.4,0.1,0.6,0.1
			c0.2,0.1,0.3,0.1,0.3,0.2c0.1,0.1,0.1,0.2,0,0.2l-3.7,6.6c-0.1,0.1-0.2,0.2-0.3,0.2c-0.2,0.1-0.3,0.1-0.6,0.2s-0.5,0.1-0.7,0.1
			s-0.6,0-0.8,0H92.6L92.6,331.9z M121.6,331.9c-0.3,0-0.6,0-0.8,0c-0.2,0-0.4-0.1-0.6-0.1c-0.2-0.1-0.3-0.1-0.3-0.2
			c-0.1-0.1-0.1-0.2,0-0.2l3.6-6.6c0.1-0.1,0.2-0.2,0.3-0.2c0.1-0.1,0.3-0.1,0.5-0.2s0.5-0.1,0.7-0.1s0.5,0,0.8,0h21.2
			c0.3,0,0.5,0,0.8,0c0.2,0,0.4,0.1,0.6,0.1c0.2,0.1,0.3,0.1,0.3,0.2c0.1,0.1,0.1,0.2,0,0.2l-3.1,6.6c0,0.1-0.1,0.2-0.3,0.2
			c-0.1,0.1-0.3,0.1-0.5,0.2c-0.2,0.1-0.5,0.1-0.7,0.1c-0.3,0-0.6,0-0.8,0H121.6L121.6,331.9z M150.6,331.9c-0.3,0-0.6,0-0.8,0
			c-0.2,0-0.4-0.1-0.6-0.1c-0.2-0.1-0.3-0.1-0.4-0.2s-0.1-0.2-0.1-0.2l3-6.6c0-0.1,0.1-0.2,0.3-0.2c0.1-0.1,0.3-0.1,0.5-0.2
			c0.2-0.1,0.4-0.1,0.7-0.1c0.3,0,0.5,0,0.8,0h21.2c0.3,0,0.5,0,0.8,0c0.2,0,0.4,0.1,0.6,0.1c0.2,0.1,0.3,0.1,0.4,0.2
			c0.1,0.1,0.1,0.2,0.1,0.2l-2.5,6.6c0,0.1-0.1,0.2-0.3,0.2c-0.1,0.1-0.3,0.1-0.5,0.2s-0.4,0.1-0.7,0.1c-0.3,0-0.5,0-0.8,0H150.6
			L150.6,331.9z M179.5,331.9c-0.3,0-0.6,0-0.8,0c-0.2,0-0.4-0.1-0.6-0.1c-0.2-0.1-0.3-0.1-0.4-0.2s-0.1-0.2-0.1-0.2l2.4-6.6
			c0-0.1,0.1-0.2,0.2-0.2c0.1-0.1,0.3-0.1,0.5-0.2c0.2-0.1,0.4-0.1,0.7-0.1s0.5,0,0.8,0H210c0.3,0,0.5,0,0.8,0
			c0.2,0,0.4,0.1,0.6,0.1c0.2,0.1,0.3,0.1,0.4,0.2c0.1,0.1,0.1,0.2,0.1,0.2l-1.8,6.6c0,0.1-0.1,0.2-0.2,0.2
			c-0.1,0.1-0.3,0.1-0.5,0.2s-0.4,0.1-0.7,0.1c-0.3,0-0.5,0-0.8,0H179.5L179.5,331.9z M214.9,331.9c-0.3,0-0.6,0-0.8,0
			c-0.2,0-0.4-0.1-0.6-0.1c-0.2-0.1-0.3-0.1-0.4-0.2c-0.1-0.1-0.1-0.2-0.1-0.2l1.7-6.6c0-0.1,0.1-0.2,0.2-0.2
			c0.1-0.1,0.3-0.1,0.5-0.2c0.2-0.1,0.4-0.1,0.7-0.1s0.5,0,0.8,0l136.1,0c0.3,0,0.5,0,0.8,0s0.5,0.1,0.7,0.1
			c0.2,0.1,0.4,0.1,0.5,0.2c0.1,0.1,0.2,0.2,0.2,0.2l1.2,6.6c0,0.1,0,0.2-0.1,0.2c-0.1,0.1-0.2,0.1-0.4,0.2s-0.4,0.1-0.6,0.1
			c-0.2,0-0.5,0-0.8,0L214.9,331.9L214.9,331.9z M361.7,331.8c-0.3,0-0.6,0-0.8,0s-0.5-0.1-0.7-0.1c-0.2-0.1-0.4-0.1-0.5-0.2
			c-0.1-0.1-0.2-0.2-0.2-0.2l-1.2-6.6c0-0.1,0-0.2,0.1-0.2c0.1-0.1,0.2-0.1,0.4-0.2c0.2-0.1,0.4-0.1,0.6-0.1s0.5,0,0.8,0h27.6
			c0.3,0,0.5,0,0.8,0s0.5,0.1,0.7,0.1c0.2,0.1,0.4,0.1,0.5,0.2c0.1,0.1,0.2,0.2,0.2,0.2l1.9,6.6c0,0.1,0,0.2-0.1,0.2
			c-0.1,0.1-0.2,0.1-0.4,0.2s-0.4,0.1-0.6,0.1c-0.2,0-0.5,0-0.8,0H361.7L361.7,331.8z M397.8,331.8c-0.3,0-0.6,0-0.8,0
			c-0.3,0-0.5-0.1-0.7-0.1c-0.2-0.1-0.4-0.1-0.5-0.2s-0.2-0.2-0.2-0.2l-2-6.6c0-0.1,0-0.2,0.1-0.2c0.1-0.1,0.2-0.1,0.4-0.2
			c0.2-0.1,0.4-0.1,0.6-0.1c0.2,0,0.5,0,0.8,0h21.3c0.3,0,0.5,0,0.8,0c0.2,0,0.5,0.1,0.7,0.1c0.2,0.1,0.4,0.1,0.5,0.2
			c0.1,0.1,0.2,0.2,0.2,0.2l2.5,6.6c0,0.1,0,0.2-0.1,0.2c-0.1,0.1-0.2,0.1-0.4,0.2c-0.2,0.1-0.4,0.1-0.6,0.1c-0.2,0-0.5,0-0.8,0
			H397.8L397.8,331.8z M453.2,327.7c-0.2,0-0.5,0-0.7,0s-0.4-0.1-0.6-0.1s-0.3-0.1-0.4-0.2c-0.1-0.1-0.2-0.1-0.2-0.2l-1.5-3
			c0-0.1,0-0.1,0-0.2c0-0.1,0.1-0.1,0.3-0.2c0.1,0,0.3-0.1,0.5-0.1s0.4,0,0.6,0h22.1c0.2,0,0.4,0,0.6,0s0.4,0.1,0.6,0.1
			c0.2,0,0.3,0.1,0.4,0.2s0.2,0.1,0.2,0.2l1.7,3c0,0.1,0,0.1,0,0.2s-0.1,0.1-0.3,0.2c-0.1,0-0.3,0.1-0.5,0.1s-0.4,0-0.6,0H453.2
			L453.2,327.7z M98.1,323.2c-0.3,0-0.5,0-0.8,0c-0.2,0-0.4-0.1-0.6-0.1c-0.2-0.1-0.2-0.1-0.3-0.2c-0.1-0.1-0.1-0.1,0-0.2l4-6.2
			c0.1-0.1,0.2-0.2,0.3-0.2s0.3-0.1,0.5-0.2c0.2,0,0.4-0.1,0.7-0.1c0.2,0,0.5,0,0.8,0l54.2,0c0.3,0,0.5,0,0.8,0
			c0.2,0,0.4,0.1,0.6,0.1c0.1,0,0.3,0.1,0.3,0.2c0.1,0.1,0.1,0.1,0.1,0.2l-2.8,6.2c0,0.1-0.1,0.2-0.3,0.2c-0.1,0.1-0.3,0.1-0.5,0.2
			s-0.4,0.1-0.7,0.1c-0.3,0-0.5,0-0.8,0L98.1,323.2L98.1,323.2z M161.8,323.2c-0.3,0-0.5,0-0.8,0c-0.2,0-0.4-0.1-0.6-0.1
			c-0.2-0.1-0.3-0.1-0.3-0.2c-0.1-0.1-0.1-0.1-0.1-0.2l2.7-6.2c0-0.1,0.1-0.2,0.3-0.2c0.1-0.1,0.3-0.1,0.5-0.2
			c0.2,0,0.4-0.1,0.7-0.1s0.5,0,0.8,0h20.7c0.3,0,0.5,0,0.8,0c0.2,0,0.4,0.1,0.6,0.1c0.2,0,0.3,0.1,0.4,0.2s0.1,0.1,0.1,0.2
			l-2.2,6.2c0,0.1-0.1,0.2-0.2,0.2c-0.1,0.1-0.3,0.1-0.5,0.2s-0.4,0.1-0.7,0.1s-0.5,0-0.8,0H161.8
			C161.8,323.2,161.8,323.2,161.8,323.2C161.8,323.2,161.8,323.2,161.8,323.2C161.8,323.2,161.8,323.2,161.8,323.2L161.8,323.2
			L161.8,323.2z M190.1,323.1c-0.3,0-0.5,0-0.8,0c-0.2,0-0.4-0.1-0.6-0.1c-0.2-0.1-0.3-0.1-0.4-0.2c-0.1-0.1-0.1-0.1-0.1-0.2
			l2.2-6.2c0-0.1,0.1-0.2,0.2-0.2c0.1-0.1,0.3-0.1,0.5-0.2c0.2,0,0.4-0.1,0.7-0.1s0.5,0,0.8,0h20.7c0.3,0,0.5,0,0.8,0
			s0.4,0.1,0.6,0.1c0.2,0,0.3,0.1,0.4,0.2s0.1,0.1,0.1,0.2l-1.7,6.2c0,0.1-0.1,0.2-0.2,0.2c-0.1,0.1-0.3,0.1-0.5,0.2
			c-0.2,0.1-0.4,0.1-0.7,0.1s-0.5,0-0.8,0H190.1L190.1,323.1z M218.5,323.1c-0.3,0-0.5,0-0.8,0c-0.2,0-0.4-0.1-0.6-0.1
			c-0.2-0.1-0.3-0.1-0.4-0.2c-0.1-0.1-0.1-0.1-0.1-0.2l1.6-6.2c0-0.1,0.1-0.2,0.2-0.2c0.1-0.1,0.3-0.1,0.5-0.2
			c0.2,0,0.4-0.1,0.7-0.1s0.5,0,0.8,0H241c0.3,0,0.5,0,0.8,0s0.4,0.1,0.6,0.1c0.2,0,0.3,0.1,0.4,0.2s0.1,0.1,0.1,0.2l-1.1,6.2
			c0,0.1-0.1,0.2-0.2,0.2c-0.1,0.1-0.3,0.1-0.5,0.2c-0.2,0.1-0.4,0.1-0.7,0.1c-0.2,0-0.5,0-0.8,0H218.5L218.5,323.1z M246.8,323.1
			c-0.3,0-0.5,0-0.8,0s-0.4-0.1-0.6-0.1c-0.2-0.1-0.3-0.1-0.4-0.2s-0.1-0.1-0.1-0.2l1.1-6.2c0-0.1,0.1-0.2,0.2-0.2s0.3-0.1,0.4-0.2
			c0.2,0,0.4-0.1,0.6-0.1c0.2,0,0.5,0,0.8,0h20.7c0.3,0,0.5,0,0.8,0c0.2,0,0.4,0.1,0.6,0.1c0.2,0,0.3,0.1,0.4,0.2
			c0.1,0.1,0.1,0.1,0.1,0.2l-0.5,6.2c0,0.1-0.1,0.2-0.2,0.2c-0.1,0.1-0.3,0.1-0.5,0.2s-0.4,0.1-0.6,0.1s-0.5,0-0.8,0H246.8
			L246.8,323.1z M275.1,323.1c-0.3,0-0.5,0-0.8,0s-0.5-0.1-0.6-0.1c-0.2-0.1-0.3-0.1-0.4-0.2c-0.1-0.1-0.1-0.2-0.1-0.2l0.5-6.2
			c0-0.1,0.1-0.2,0.2-0.2c0.1-0.1,0.2-0.1,0.4-0.2c0.2,0,0.4-0.1,0.6-0.1c0.2,0,0.5,0,0.8,0h20.7c0.3,0,0.5,0,0.8,0s0.5,0.1,0.6,0.1
			c0.2,0,0.3,0.1,0.4,0.2s0.1,0.1,0.1,0.2v6.2c0,0.1-0.1,0.2-0.2,0.2c-0.1,0.1-0.2,0.1-0.4,0.2s-0.4,0.1-0.6,0.1c-0.2,0-0.5,0-0.8,0
			L275.1,323.1L275.1,323.1z M303.4,323.1c-0.3,0-0.5,0-0.8,0c-0.2,0-0.5-0.1-0.6-0.1c-0.2-0.1-0.3-0.1-0.4-0.2
			c-0.1-0.1-0.2-0.2-0.2-0.2l-0.1-6.2c0-0.1,0-0.2,0.1-0.2s0.2-0.1,0.4-0.2c0.2,0,0.4-0.1,0.6-0.1c0.2,0,0.5,0,0.8,0H324
			c0.3,0,0.5,0,0.8,0s0.5,0.1,0.6,0.1c0.2,0,0.3,0.1,0.4,0.2c0.1,0.1,0.2,0.1,0.2,0.2l0.6,6.2c0,0.1,0,0.2-0.1,0.2
			c-0.1,0.1-0.2,0.1-0.4,0.2c-0.2,0.1-0.4,0.1-0.6,0.1s-0.5,0-0.8,0H303.4L303.4,323.1z M331.7,323.1c-0.3,0-0.5,0-0.8,0
			c-0.2,0-0.5-0.1-0.7-0.1c-0.2-0.1-0.3-0.1-0.5-0.2c-0.1-0.1-0.2-0.1-0.2-0.2l-0.6-6.2c0-0.1,0-0.2,0.1-0.2s0.2-0.1,0.4-0.2
			c0.2,0,0.4-0.1,0.6-0.1c0.2,0,0.5,0,0.8,0h20.7c0.3,0,0.5,0,0.8,0c0.2,0,0.5,0.1,0.6,0.1c0.2,0,0.3,0.1,0.5,0.2
			c0.1,0.1,0.2,0.1,0.2,0.2l1.1,6.2c0,0.1,0,0.2-0.1,0.2c-0.1,0.1-0.2,0.1-0.4,0.2c-0.2,0.1-0.4,0.1-0.6,0.1s-0.5,0-0.8,0H331.7
			L331.7,323.1z M360,323.1c-0.3,0-0.5,0-0.8,0s-0.5-0.1-0.7-0.1c-0.2-0.1-0.4-0.1-0.5-0.2c-0.1-0.1-0.2-0.1-0.2-0.2l-1.2-6.2
			c0-0.1,0-0.2,0.1-0.2c0.1-0.1,0.2-0.1,0.4-0.2c0.2,0,0.4-0.1,0.6-0.1s0.5,0,0.8,0h20.7c0.3,0,0.5,0,0.8,0s0.5,0.1,0.7,0.1
			c0.2,0,0.4,0.1,0.5,0.2c0.1,0.1,0.2,0.1,0.2,0.2l1.7,6.2c0,0.1,0,0.2-0.1,0.2c-0.1,0.1-0.2,0.1-0.4,0.2s-0.4,0.1-0.6,0.1
			c-0.2,0-0.5,0-0.8,0H360L360,323.1z M388.3,323.1c-0.3,0-0.5,0-0.8,0s-0.5-0.1-0.7-0.1c-0.2-0.1-0.4-0.1-0.5-0.2
			c-0.1-0.1-0.2-0.1-0.2-0.2l-1.7-6.2c0-0.1,0-0.2,0.1-0.2s0.2-0.1,0.4-0.2s0.4-0.1,0.6-0.1s0.5,0,0.8,0h20.7c0,0,0,0,0,0
			c0,0,0,0,0,0s0,0,0,0s0,0,0,0c0.3,0,0.5,0,0.8,0c0.2,0,0.5,0.1,0.7,0.1c0.2,0,0.4,0.1,0.5,0.2c0.1,0.1,0.2,0.1,0.2,0.2l2.2,6.2
			c0,0.1,0,0.2-0.1,0.2c-0.1,0.1-0.2,0.1-0.4,0.2c-0.2,0.1-0.4,0.1-0.6,0.1s-0.5,0-0.8,0H388.3L388.3,323.1z M416.6,323.1
			c-0.3,0-0.5,0-0.8,0s-0.5-0.1-0.7-0.1c-0.2-0.1-0.4-0.1-0.5-0.2c-0.1-0.1-0.2-0.1-0.2-0.2l-2.3-6.2c0-0.1,0-0.2,0.1-0.2
			s0.2-0.1,0.4-0.2s0.4-0.1,0.6-0.1c0.2,0,0.5,0,0.8,0h20.7c0.3,0,0.5,0,0.8,0s0.5,0.1,0.7,0.1c0.2,0,0.4,0.1,0.5,0.2
			s0.2,0.1,0.3,0.2l2.8,6.2c0,0.1,0,0.2,0,0.2c-0.1,0.1-0.2,0.1-0.4,0.2s-0.4,0.1-0.6,0.1s-0.5,0-0.8,0L416.6,323.1L416.6,323.1z
			 M444.9,323.1c-0.3,0-0.5,0-0.8,0s-0.5-0.1-0.7-0.1c-0.2-0.1-0.4-0.1-0.5-0.2c-0.1-0.1-0.2-0.2-0.3-0.2l-2.8-6.2
			c0-0.1,0-0.2,0-0.2c0.1-0.1,0.2-0.1,0.3-0.2c0.2,0,0.4-0.1,0.6-0.1s0.5,0,0.8,0l54.7,0c0.3,0,0.5,0,0.8,0c0.3,0,0.5,0.1,0.7,0.1
			c0.2,0,0.4,0.1,0.5,0.2s0.2,0.1,0.3,0.2l4,6.2c0,0.1,0,0.2,0,0.2c-0.1,0.1-0.2,0.1-0.3,0.2s-0.3,0.1-0.6,0.1s-0.5,0-0.8,0
			L444.9,323.1L444.9,323.1z M103.3,314.9c-0.3,0-0.5,0-0.7,0s-0.4-0.1-0.5-0.1c-0.1,0-0.2-0.1-0.3-0.2s-0.1-0.1,0-0.2l3.8-5.9
			c0.1-0.1,0.2-0.1,0.3-0.2s0.3-0.1,0.5-0.2s0.4-0.1,0.7-0.1s0.5,0,0.8,0h39.4c0.3,0,0.5,0,0.7,0c0.2,0,0.4,0.1,0.6,0.1
			c0.1,0,0.3,0.1,0.3,0.2c0.1,0.1,0.1,0.1,0,0.2l-2.9,5.9c0,0.1-0.1,0.2-0.3,0.2c-0.1,0.1-0.3,0.1-0.5,0.2c-0.2,0-0.4,0.1-0.7,0.1
			s-0.5,0-0.8,0H103.3L103.3,314.9z M150.1,314.9c-0.3,0-0.5,0-0.8,0c-0.2,0-0.4-0.1-0.6-0.1c-0.1,0-0.3-0.1-0.3-0.2
			c-0.1-0.1-0.1-0.1,0-0.2l2.9-5.9c0-0.1,0.1-0.1,0.3-0.2c0.1-0.1,0.3-0.1,0.5-0.2s0.4-0.1,0.7-0.1s0.5,0,0.8,0h20.2
			c0.3,0,0.5,0,0.7,0c0.2,0,0.4,0.1,0.6,0.1s0.3,0.1,0.3,0.2c0.1,0.1,0.1,0.1,0.1,0.2l-2.4,5.9c0,0.1-0.1,0.2-0.2,0.2
			s-0.3,0.1-0.5,0.2c-0.2,0-0.4,0.1-0.7,0.1s-0.5,0-0.8,0H150.1L150.1,314.9z M177.7,314.9c-0.3,0-0.5,0-0.8,0
			c-0.2,0-0.4-0.1-0.6-0.1c-0.2,0-0.3-0.1-0.4-0.2c-0.1-0.1-0.1-0.1-0.1-0.2l2.3-5.9c0-0.1,0.1-0.1,0.2-0.2c0.1-0.1,0.3-0.1,0.5-0.2
			s0.4-0.1,0.7-0.1s0.5,0,0.8,0h20.2c0.3,0,0.5,0,0.7,0c0.2,0,0.4,0.1,0.6,0.1s0.3,0.1,0.4,0.2s0.1,0.1,0.1,0.2l-1.9,5.9
			c0,0.1-0.1,0.2-0.2,0.2s-0.3,0.1-0.5,0.2c-0.2,0-0.4,0.1-0.7,0.1s-0.5,0-0.8,0H177.7L177.7,314.9z M205.3,314.9
			c-0.3,0-0.5,0-0.8,0s-0.4-0.1-0.6-0.1c-0.2,0-0.3-0.1-0.4-0.2s-0.1-0.1-0.1-0.2l1.8-5.9c0-0.1,0.1-0.1,0.2-0.2s0.3-0.1,0.5-0.2
			s0.4-0.1,0.6-0.1c0.2,0,0.5,0,0.8,0h20.2c0.3,0,0.5,0,0.7,0c0.2,0,0.4,0.1,0.6,0.1s0.3,0.1,0.4,0.2s0.1,0.1,0.1,0.2l-1.4,5.9
			c0,0.1-0.1,0.2-0.2,0.2c-0.1,0.1-0.3,0.1-0.5,0.2c-0.2,0-0.4,0.1-0.6,0.1c-0.2,0-0.5,0-0.8,0H205.3L205.3,314.9z M232.9,314.9
			c-0.3,0-0.5,0-0.8,0s-0.4-0.1-0.6-0.1c-0.2,0-0.3-0.1-0.4-0.2s-0.1-0.1-0.1-0.2l1.3-5.9c0-0.1,0.1-0.1,0.2-0.2s0.3-0.1,0.4-0.2
			s0.4-0.1,0.6-0.1s0.5,0,0.8,0h20.2c0.3,0,0.5,0,0.7,0c0.2,0,0.4,0.1,0.6,0.1c0.2,0,0.3,0.1,0.4,0.2s0.1,0.1,0.1,0.2l-0.8,5.9
			c0,0.1-0.1,0.2-0.2,0.2s-0.3,0.1-0.4,0.2c-0.2,0-0.4,0.1-0.6,0.1c-0.2,0-0.5,0-0.8,0H232.9L232.9,314.9z M260.4,314.9
			c-0.3,0-0.5,0-0.8,0s-0.4-0.1-0.6-0.1c-0.2,0-0.3-0.1-0.4-0.2s-0.1-0.1-0.1-0.2l0.8-5.9c0-0.1,0.1-0.1,0.2-0.2s0.3-0.1,0.4-0.2
			s0.4-0.1,0.6-0.1s0.5,0,0.8,0h20.2c0.3,0,0.5,0,0.8,0c0.2,0,0.4,0.1,0.6,0.1s0.3,0.1,0.4,0.2s0.1,0.1,0.1,0.2l-0.3,5.9
			c0,0.1-0.1,0.2-0.2,0.2c-0.1,0.1-0.2,0.1-0.4,0.2c-0.2,0-0.4,0.1-0.6,0.1s-0.5,0-0.8,0H260.4L260.4,314.9z M288,314.9
			c-0.3,0-0.5,0-0.8,0s-0.4-0.1-0.6-0.1c-0.2,0-0.3-0.1-0.4-0.2c-0.1-0.1-0.1-0.1-0.1-0.2l0.2-5.9c0-0.1,0.1-0.1,0.2-0.2
			s0.2-0.1,0.4-0.2c0.2,0,0.4-0.1,0.6-0.1c0.2,0,0.5,0,0.8,0h20.2c0.3,0,0.5,0,0.8,0c0.2,0,0.4,0.1,0.6,0.1s0.3,0.1,0.4,0.2
			s0.2,0.1,0.2,0.2l0.2,5.9c0,0.1,0,0.2-0.1,0.2s-0.2,0.1-0.4,0.2c-0.2,0-0.4,0.1-0.6,0.1c-0.2,0-0.5,0-0.8,0H288L288,314.9z
			 M315.5,314.9c-0.3,0-0.5,0-0.8,0s-0.5-0.1-0.6-0.1c-0.2,0-0.3-0.1-0.4-0.2s-0.2-0.1-0.2-0.2l-0.3-5.9c0-0.1,0-0.1,0.1-0.2
			c0.1-0.1,0.2-0.1,0.4-0.2c0.2,0,0.4-0.1,0.6-0.1c0.2,0,0.5,0,0.8,0h20.2c0.3,0,0.5,0,0.8,0c0.2,0,0.4,0.1,0.6,0.1s0.3,0.1,0.4,0.2
			c0.1,0.1,0.2,0.1,0.2,0.2l0.8,5.9c0,0.1,0,0.2-0.1,0.2s-0.2,0.1-0.4,0.2c-0.2,0-0.4,0.1-0.6,0.1c-0.2,0-0.5,0-0.8,0H315.5
			L315.5,314.9z M343.1,314.9c-0.3,0-0.5,0-0.8,0s-0.5-0.1-0.6-0.1c-0.2,0-0.3-0.1-0.5-0.2c-0.1-0.1-0.2-0.1-0.2-0.2l-0.8-5.9
			c0-0.1,0-0.1,0.1-0.2s0.2-0.1,0.4-0.2s0.4-0.1,0.6-0.1c0.2,0,0.5,0,0.7,0h20.2c0.3,0,0.5,0,0.8,0c0.2,0,0.5,0.1,0.6,0.1
			s0.3,0.1,0.5,0.2c0.1,0.1,0.2,0.1,0.2,0.2l1.3,5.9c0,0.1,0,0.2-0.1,0.2s-0.2,0.1-0.4,0.2c-0.2,0-0.4,0.1-0.6,0.1s-0.5,0-0.8,0
			H343.1L343.1,314.9z M370.7,314.9c-0.3,0-0.5,0-0.8,0s-0.5-0.1-0.7-0.1c-0.2,0-0.4-0.1-0.5-0.2s-0.2-0.1-0.2-0.2l-1.4-5.9
			c0-0.1,0-0.1,0.1-0.2c0.1-0.1,0.2-0.1,0.4-0.2s0.4-0.1,0.6-0.1c0.2,0,0.5,0,0.7,0h20.2c0.3,0,0.5,0,0.8,0c0.2,0,0.5,0.1,0.6,0.1
			s0.4,0.1,0.5,0.2c0.1,0.1,0.2,0.1,0.2,0.2l1.8,5.9c0,0.1,0,0.2-0.1,0.2c-0.1,0.1-0.2,0.1-0.4,0.2c-0.2,0-0.4,0.1-0.6,0.1
			s-0.5,0-0.8,0H370.7L370.7,314.9z M398.2,314.9c-0.3,0-0.5,0-0.8,0s-0.5-0.1-0.7-0.1c-0.2,0-0.4-0.1-0.5-0.2
			c-0.1-0.1-0.2-0.1-0.2-0.2l-1.9-5.9c0-0.1,0-0.1,0.1-0.2c0.1-0.1,0.2-0.1,0.4-0.2c0.2,0,0.4-0.1,0.6-0.1s0.5,0,0.7,0h20.2
			c0.3,0,0.5,0,0.8,0c0.2,0,0.5,0.1,0.7,0.1c0.2,0,0.4,0.1,0.5,0.2c0.1,0.1,0.2,0.1,0.2,0.2l2.4,5.9c0,0.1,0,0.2-0.1,0.2
			c-0.1,0.1-0.2,0.1-0.4,0.2c-0.2,0-0.4,0.1-0.6,0.1c-0.2,0-0.5,0-0.8,0H398.2L398.2,314.9z M425.8,314.8c-0.3,0-0.5,0-0.8,0
			s-0.5-0.1-0.7-0.1c-0.2,0-0.4-0.1-0.5-0.2s-0.2-0.1-0.2-0.2l-2.4-5.9c0-0.1,0-0.1,0.1-0.2s0.2-0.1,0.3-0.2s0.4-0.1,0.6-0.1
			s0.5,0,0.7,0h20.2c0,0,0,0,0,0c0,0,0,0,0,0c0,0,0,0,0,0s0,0,0,0c0.3,0,0.5,0,0.8,0c0.2,0,0.5,0.1,0.7,0.1s0.4,0.1,0.5,0.2
			s0.2,0.1,0.2,0.2l2.9,5.9c0,0.1,0,0.2,0,0.2c-0.1,0.1-0.2,0.1-0.3,0.2c-0.1,0-0.3,0.1-0.6,0.1s-0.5,0-0.7,0H425.8L425.8,314.8z
			 M453.9,314.8c-0.3,0-0.5,0-0.8,0s-0.5-0.1-0.7-0.1c-0.2,0-0.4-0.1-0.5-0.2c-0.1-0.1-0.2-0.1-0.3-0.2l-2.9-5.9c0-0.1,0-0.1,0-0.2
			s0.2-0.1,0.3-0.2s0.3-0.1,0.5-0.1c0.2,0,0.5,0,0.7,0l40.8,0c0.3,0,0.5,0,0.8,0c0.2,0,0.5,0.1,0.7,0.1s0.4,0.1,0.5,0.2
			c0.1,0.1,0.2,0.1,0.3,0.2l3.8,5.9c0.1,0.1,0,0.2,0,0.2s-0.2,0.1-0.3,0.2c-0.1,0-0.3,0.1-0.5,0.1s-0.5,0-0.7,0L453.9,314.8
			L453.9,314.8z M108.2,307c-0.3,0-0.5,0-0.7,0c-0.2,0-0.4-0.1-0.5-0.1s-0.2-0.1-0.3-0.2c-0.1-0.1-0.1-0.1,0-0.2l3.6-5.6
			c0.1-0.1,0.1-0.1,0.3-0.2c0.1-0.1,0.3-0.1,0.5-0.2c0.2,0,0.4-0.1,0.7-0.1s0.5,0,0.8,0h32.2c0.3,0,0.5,0,0.7,0s0.4,0.1,0.5,0.1
			c0.1,0,0.2,0.1,0.3,0.2c0.1,0.1,0.1,0.1,0,0.2l-2.9,5.6c0,0.1-0.1,0.1-0.3,0.2c-0.1,0.1-0.3,0.1-0.5,0.2s-0.4,0.1-0.7,0.1
			s-0.5,0-0.8,0L108.2,307L108.2,307z M148.4,307c-0.3,0-0.5,0-0.7,0c-0.2,0-0.4-0.1-0.6-0.1c-0.1,0-0.3-0.1-0.3-0.2
			c-0.1-0.1-0.1-0.1-0.1-0.2l2.9-5.6c0-0.1,0.1-0.1,0.2-0.2s0.3-0.1,0.5-0.2c0.2,0,0.4-0.1,0.6-0.1c0.2,0,0.5,0,0.8,0h19.7
			c0.3,0,0.5,0,0.7,0s0.4,0.1,0.6,0.1c0.1,0,0.3,0.1,0.3,0.2c0.1,0.1,0.1,0.1,0.1,0.2l-2.4,5.6c0,0.1-0.1,0.1-0.2,0.2
			c-0.1,0.1-0.3,0.1-0.5,0.2s-0.4,0.1-0.7,0.1s-0.5,0-0.8,0H148.4L148.4,307z M175.2,307c-0.3,0-0.5,0-0.7,0c-0.2,0-0.4-0.1-0.6-0.1
			s-0.3-0.1-0.3-0.2c-0.1-0.1-0.1-0.1-0.1-0.2l2.3-5.6c0-0.1,0.1-0.1,0.2-0.2c0.1-0.1,0.3-0.1,0.5-0.2c0.2,0,0.4-0.1,0.6-0.1
			c0.2,0,0.5,0,0.8,0h19.7c0.3,0,0.5,0,0.7,0c0.2,0,0.4,0.1,0.6,0.1c0.1,0,0.3,0.1,0.3,0.2c0.1,0.1,0.1,0.1,0.1,0.2l-1.9,5.6
			c0,0.1-0.1,0.1-0.2,0.2s-0.3,0.1-0.5,0.2s-0.4,0.1-0.6,0.1c-0.2,0-0.5,0-0.8,0H175.2L175.2,307z M202.1,307c-0.3,0-0.5,0-0.7,0
			c-0.2,0-0.4-0.1-0.6-0.1s-0.3-0.1-0.4-0.2c-0.1-0.1-0.1-0.1-0.1-0.2l1.8-5.6c0-0.1,0.1-0.1,0.2-0.2c0.1-0.1,0.3-0.1,0.5-0.2
			c0.2,0,0.4-0.1,0.6-0.1c0.2,0,0.5,0,0.7,0h19.7c0.3,0,0.5,0,0.7,0s0.4,0.1,0.6,0.1c0.2,0,0.3,0.1,0.4,0.2c0.1,0.1,0.1,0.1,0.1,0.2
			l-1.4,5.6c0,0.1-0.1,0.1-0.2,0.2s-0.3,0.1-0.4,0.2c-0.2,0-0.4,0.1-0.6,0.1s-0.5,0-0.8,0H202.1L202.1,307z M229,307
			c-0.3,0-0.5,0-0.7,0c-0.2,0-0.4-0.1-0.6-0.1s-0.3-0.1-0.4-0.2s-0.1-0.1-0.1-0.2l1.3-5.6c0-0.1,0.1-0.1,0.2-0.2
			c0.1-0.1,0.3-0.1,0.4-0.2c0.2,0,0.4-0.1,0.6-0.1c0.2,0,0.5,0,0.7,0h19.7c0.3,0,0.5,0,0.7,0s0.4,0.1,0.6,0.1c0.2,0,0.3,0.1,0.4,0.2
			c0.1,0.1,0.1,0.1,0.1,0.2l-0.9,5.6c0,0.1-0.1,0.1-0.2,0.2c-0.1,0.1-0.3,0.1-0.4,0.2c-0.2,0-0.4,0.1-0.6,0.1c-0.2,0-0.5,0-0.8,0
			H229L229,307z M255.8,307c-0.3,0-0.5,0-0.7,0c-0.2,0-0.4-0.1-0.6-0.1c-0.2,0-0.3-0.1-0.4-0.2s-0.1-0.1-0.1-0.2l0.8-5.6
			c0-0.1,0.1-0.1,0.2-0.2c0.1-0.1,0.2-0.1,0.4-0.2c0.2,0,0.4-0.1,0.6-0.1c0.2,0,0.5,0,0.7,0h19.7c0.3,0,0.5,0,0.7,0s0.4,0.1,0.6,0.1
			c0.2,0,0.3,0.1,0.4,0.2c0.1,0.1,0.1,0.1,0.1,0.2l-0.4,5.6c0,0.1-0.1,0.1-0.2,0.2s-0.2,0.1-0.4,0.2c-0.2,0-0.4,0.1-0.6,0.1
			c-0.2,0-0.5,0-0.8,0H255.8L255.8,307z M282.7,307c-0.3,0-0.5,0-0.7,0c-0.2,0-0.4-0.1-0.6-0.1s-0.3-0.1-0.4-0.2s-0.1-0.1-0.1-0.2
			l0.3-5.6c0-0.1,0.1-0.1,0.2-0.2c0.1-0.1,0.2-0.1,0.4-0.2c0.2,0,0.4-0.1,0.6-0.1c0.2,0,0.5,0,0.7,0h19.7c0,0,0,0,0,0c0,0,0,0,0,0
			c0,0,0,0,0,0c0,0,0,0,0,0c0.3,0,0.5,0,0.7,0s0.4,0.1,0.6,0.1c0.2,0,0.3,0.1,0.4,0.2c0.1,0.1,0.1,0.1,0.1,0.2l0.1,5.6
			c0,0.1,0,0.1-0.1,0.2s-0.2,0.1-0.4,0.2c-0.2,0-0.4,0.1-0.6,0.1c-0.2,0-0.5,0-0.8,0L282.7,307L282.7,307z M309.6,307
			c-0.3,0-0.5,0-0.8,0c-0.2,0-0.4-0.1-0.6-0.1s-0.3-0.1-0.4-0.2s-0.2-0.1-0.2-0.2l-0.2-5.6c0-0.1,0-0.1,0.1-0.2
			c0.1-0.1,0.2-0.1,0.4-0.2c0.2,0,0.4-0.1,0.6-0.1s0.5,0,0.7,0H329c0.3,0,0.5,0,0.7,0c0.2,0,0.4,0.1,0.6,0.1c0.2,0,0.3,0.1,0.4,0.2
			c0.1,0.1,0.2,0.1,0.2,0.2l0.6,5.6c0,0.1,0,0.1-0.1,0.2s-0.2,0.1-0.4,0.2s-0.4,0.1-0.6,0.1s-0.5,0-0.7,0L309.6,307L309.6,307z
			 M336.4,307c-0.3,0-0.5,0-0.8,0s-0.4-0.1-0.6-0.1s-0.3-0.1-0.4-0.2s-0.2-0.1-0.2-0.2l-0.7-5.6c0-0.1,0-0.1,0.1-0.2
			c0.1-0.1,0.2-0.1,0.4-0.2c0.2,0,0.4-0.1,0.6-0.1c0.2,0,0.5,0,0.7,0h19.7c0.3,0,0.5,0,0.7,0s0.4,0.1,0.6,0.1c0.2,0,0.3,0.1,0.4,0.2
			c0.1,0.1,0.2,0.1,0.2,0.2l1.1,5.6c0,0.1,0,0.1-0.1,0.2c-0.1,0.1-0.2,0.1-0.4,0.2s-0.4,0.1-0.6,0.1s-0.5,0-0.7,0H336.4L336.4,307z
			 M363.3,307c-0.3,0-0.5,0-0.8,0c-0.2,0-0.5-0.1-0.6-0.1c-0.2,0-0.3-0.1-0.5-0.2s-0.2-0.1-0.2-0.2l-1.2-5.6c0-0.1,0-0.1,0.1-0.2
			c0.1-0.1,0.2-0.1,0.4-0.2c0.2,0,0.4-0.1,0.6-0.1s0.5,0,0.7,0h19.7c0.3,0,0.5,0,0.7,0c0.2,0,0.4,0.1,0.6,0.1c0.2,0,0.3,0.1,0.5,0.2
			c0.1,0.1,0.2,0.1,0.2,0.2l1.6,5.6c0,0.1,0,0.1-0.1,0.2s-0.2,0.1-0.4,0.2c-0.2,0-0.4,0.1-0.6,0.1s-0.5,0-0.7,0H363.3L363.3,307z
			 M390.1,307c-0.3,0-0.5,0-0.8,0c-0.2,0-0.5-0.1-0.6-0.1c-0.2,0-0.4-0.1-0.5-0.2c-0.1-0.1-0.2-0.1-0.2-0.2l-1.7-5.6
			c0-0.1,0-0.1,0.1-0.2c0.1-0.1,0.2-0.1,0.4-0.2c0.1,0,0.3-0.1,0.6-0.1c0.2,0,0.5,0,0.7,0h19.7c0.3,0,0.5,0,0.7,0
			c0.2,0,0.5,0.1,0.6,0.1c0.2,0,0.4,0.1,0.5,0.2c0.1,0.1,0.2,0.1,0.2,0.2l2.1,5.6c0,0.1,0,0.1-0.1,0.2s-0.2,0.1-0.3,0.2
			s-0.4,0.1-0.6,0.1s-0.5,0-0.7,0H390.1L390.1,307z M417,307c-0.3,0-0.5,0-0.8,0c-0.2,0-0.5-0.1-0.7-0.1c-0.2,0-0.4-0.1-0.5-0.2
			c-0.1-0.1-0.2-0.1-0.2-0.2l-2.2-5.6c0-0.1,0-0.1,0.1-0.2c0.1-0.1,0.2-0.1,0.3-0.2s0.3-0.1,0.5-0.1s0.5,0,0.7,0H434c0,0,0,0,0,0
			c0,0,0,0,0,0s0,0,0,0c0,0,0,0,0,0c0.3,0,0.5,0,0.7,0c0.2,0,0.5,0.1,0.6,0.1c0.2,0,0.4,0.1,0.5,0.2c0.1,0.1,0.2,0.1,0.2,0.2
			l2.6,5.6c0,0.1,0,0.1,0,0.2c-0.1,0.1-0.2,0.1-0.3,0.2s-0.3,0.1-0.5,0.1c-0.2,0-0.5,0-0.7,0L417,307L417,307z M443.9,307
			c-0.3,0-0.5,0-0.8,0c-0.2,0-0.5-0.1-0.7-0.1c-0.2,0-0.4-0.1-0.5-0.2s-0.2-0.1-0.2-0.2l-2.7-5.6c0-0.1,0-0.1,0-0.2
			c0.1-0.1,0.2-0.1,0.3-0.2c0.1,0,0.3-0.1,0.5-0.1c0.2,0,0.5,0,0.7,0h19.7c0.3,0,0.5,0,0.8,0c0.2,0,0.5,0.1,0.7,0.1
			c0.2,0,0.4,0.1,0.5,0.2c0.1,0.1,0.2,0.1,0.3,0.2l3.1,5.6c0,0.1,0,0.1,0,0.2s-0.2,0.1-0.3,0.2c-0.1,0-0.3,0.1-0.5,0.1s-0.5,0-0.7,0
			L443.9,307L443.9,307z M470.5,307c-0.3,0-0.5,0-0.8,0c-0.2,0-0.5-0.1-0.7-0.1c-0.2,0-0.4-0.1-0.5-0.2c-0.1-0.1-0.2-0.1-0.3-0.2
			l-3.2-5.6c0-0.1,0-0.1,0-0.2c0.1-0.1,0.2-0.1,0.3-0.2c0.1,0,0.3-0.1,0.5-0.1s0.5,0,0.7,0h19.7c0.3,0,0.5,0,0.8,0
			c0.2,0,0.5,0.1,0.7,0.1c0.2,0,0.4,0.1,0.5,0.2c0.1,0.1,0.2,0.1,0.3,0.2l3.6,5.6c0,0.1,0,0.1,0,0.2c0,0.1-0.1,0.1-0.3,0.2
			s-0.3,0.1-0.5,0.1s-0.5,0-0.7,0L470.5,307L470.5,307z M112.9,299.6c-0.3,0-0.5,0-0.7,0s-0.4-0.1-0.5-0.1c-0.1,0-0.2-0.1-0.3-0.2
			c-0.1-0.1-0.1-0.1,0-0.2l3.4-5.3c0.1-0.1,0.1-0.1,0.3-0.2s0.3-0.1,0.5-0.2c0.2,0,0.4-0.1,0.7-0.1c0.2,0,0.5,0,0.7,0h19.2
			c0.2,0,0.5,0,0.7,0c0.2,0,0.4,0.1,0.5,0.1s0.2,0.1,0.3,0.2s0.1,0.1,0,0.2l-3,5.3c0,0.1-0.1,0.1-0.3,0.2c-0.1,0.1-0.3,0.1-0.5,0.2
			c-0.2,0-0.4,0.1-0.7,0.1c-0.2,0-0.5,0-0.8,0L112.9,299.6L112.9,299.6z M139.1,299.6c-0.3,0-0.5,0-0.7,0s-0.4-0.1-0.5-0.1
			c-0.1,0-0.2-0.1-0.3-0.2c-0.1-0.1-0.1-0.1,0-0.2l2.9-5.3c0-0.1,0.1-0.1,0.3-0.2c0.1-0.1,0.3-0.1,0.5-0.2c0.2,0,0.4-0.1,0.6-0.1
			s0.5,0,0.7,0h19.2c0.2,0,0.5,0,0.7,0c0.2,0,0.4,0.1,0.5,0.1s0.2,0.1,0.3,0.2s0.1,0.1,0.1,0.2l-2.5,5.3c0,0.1-0.1,0.1-0.2,0.2
			c-0.1,0.1-0.3,0.1-0.5,0.2c-0.2,0-0.4,0.1-0.6,0.1s-0.5,0-0.8,0L139.1,299.6L139.1,299.6z M165.3,299.6c-0.3,0-0.5,0-0.7,0
			c-0.2,0-0.4-0.1-0.5-0.1c-0.1,0-0.2-0.1-0.3-0.2c-0.1-0.1-0.1-0.1-0.1-0.2l2.5-5.3c0-0.1,0.1-0.1,0.2-0.2s0.3-0.1,0.5-0.2
			c0.2,0,0.4-0.1,0.6-0.1c0.2,0,0.5,0,0.7,0h19.2c0.2,0,0.5,0,0.7,0c0.2,0,0.4,0.1,0.5,0.1s0.3,0.1,0.3,0.2s0.1,0.1,0.1,0.2l-2,5.3
			c0,0.1-0.1,0.1-0.2,0.2c-0.1,0.1-0.3,0.1-0.5,0.2c-0.2,0-0.4,0.1-0.6,0.1c-0.2,0-0.5,0-0.8,0L165.3,299.6
			C165.3,299.6,165.3,299.6,165.3,299.6C165.3,299.6,165.3,299.6,165.3,299.6C165.3,299.6,165.3,299.6,165.3,299.6
			C165.3,299.6,165.3,299.6,165.3,299.6L165.3,299.6z M191.5,299.6c-0.3,0-0.5,0-0.7,0s-0.4-0.1-0.6-0.1c-0.1,0-0.3-0.1-0.3-0.2
			c-0.1-0.1-0.1-0.1-0.1-0.2l2-5.3c0-0.1,0.1-0.1,0.2-0.2s0.3-0.1,0.5-0.2c0.2,0,0.4-0.1,0.6-0.1c0.2,0,0.5,0,0.7,0h19.2
			c0.2,0,0.5,0,0.7,0c0.2,0,0.4,0.1,0.6,0.1c0.1,0,0.3,0.1,0.3,0.2c0.1,0.1,0.1,0.1,0.1,0.2l-1.6,5.3c0,0.1-0.1,0.1-0.2,0.2
			c-0.1,0.1-0.3,0.1-0.4,0.2c-0.2,0-0.4,0.1-0.6,0.1c-0.2,0-0.5,0-0.7,0H191.5L191.5,299.6z M217.7,299.6c-0.3,0-0.5,0-0.7,0
			s-0.4-0.1-0.6-0.1c-0.2,0-0.3-0.1-0.4-0.2c-0.1-0.1-0.1-0.1-0.1-0.2l1.5-5.3c0-0.1,0.1-0.1,0.2-0.2s0.3-0.1,0.4-0.2
			c0.2,0,0.4-0.1,0.6-0.1s0.5,0,0.7,0h19.2c0.2,0,0.5,0,0.7,0c0.2,0,0.4,0.1,0.6,0.1c0.2,0,0.3,0.1,0.4,0.2s0.1,0.1,0.1,0.2
			l-1.1,5.3c0,0.1-0.1,0.1-0.2,0.2c-0.1,0.1-0.3,0.1-0.4,0.2c-0.2,0-0.4,0.1-0.6,0.1c-0.2,0-0.5,0-0.7,0H217.7L217.7,299.6z
			 M243.9,299.6c-0.3,0-0.5,0-0.7,0s-0.4-0.1-0.6-0.1c-0.2,0-0.3-0.1-0.4-0.2c-0.1-0.1-0.1-0.1-0.1-0.2l1-5.3c0-0.1,0.1-0.1,0.2-0.2
			c0.1-0.1,0.2-0.1,0.4-0.2c0.2,0,0.4-0.1,0.6-0.1c0.2,0,0.5,0,0.7,0h19.2c0.2,0,0.5,0,0.7,0s0.4,0.1,0.6,0.1s0.3,0.1,0.4,0.2
			c0.1,0.1,0.1,0.1,0.1,0.2l-0.6,5.3c0,0.1-0.1,0.1-0.2,0.2c-0.1,0.1-0.2,0.1-0.4,0.2c-0.2,0-0.4,0.1-0.6,0.1c-0.2,0-0.5,0-0.7,0
			L243.9,299.6L243.9,299.6z M270.1,299.6c-0.3,0-0.5,0-0.7,0s-0.4-0.1-0.6-0.1c-0.2,0-0.3-0.1-0.4-0.2c-0.1-0.1-0.1-0.1-0.1-0.2
			l0.5-5.3c0-0.1,0.1-0.1,0.2-0.2c0.1-0.1,0.2-0.1,0.4-0.2c0.2,0,0.4-0.1,0.6-0.1s0.5,0,0.7,0H290c0.2,0,0.5,0,0.7,0
			s0.4,0.1,0.6,0.1c0.2,0,0.3,0.1,0.4,0.2s0.1,0.1,0.1,0.2l-0.1,5.3c0,0.1-0.1,0.1-0.1,0.2c-0.1,0.1-0.2,0.1-0.4,0.2
			c-0.2,0-0.4,0.1-0.6,0.1c-0.2,0-0.5,0-0.7,0H270.1L270.1,299.6z M296.3,299.6c-0.3,0-0.5,0-0.7,0s-0.4-0.1-0.6-0.1
			c-0.2,0-0.3-0.1-0.4-0.2c-0.1-0.1-0.1-0.1-0.1-0.2l0.1-5.3c0-0.1,0-0.1,0.1-0.2c0.1-0.1,0.2-0.1,0.4-0.2c0.2,0,0.4-0.1,0.6-0.1
			s0.5,0,0.7,0h19.2c0.2,0,0.5,0,0.7,0s0.4,0.1,0.6,0.1c0.2,0,0.3,0.1,0.4,0.2s0.1,0.1,0.2,0.2l0.4,5.3c0,0.1,0,0.1-0.1,0.2
			c-0.1,0.1-0.2,0.1-0.4,0.2c-0.2,0-0.4,0.1-0.6,0.1c-0.2,0-0.5,0-0.7,0L296.3,299.6C296.3,299.6,296.3,299.6,296.3,299.6
			C296.3,299.6,296.3,299.6,296.3,299.6C296.3,299.6,296.3,299.6,296.3,299.6L296.3,299.6L296.3,299.6z M322.5,299.6
			c-0.3,0-0.5,0-0.7,0c-0.2,0-0.4-0.1-0.6-0.1c-0.2,0-0.3-0.1-0.4-0.2c-0.1-0.1-0.2-0.1-0.2-0.2l-0.4-5.3c0-0.1,0-0.1,0.1-0.2
			s0.2-0.1,0.4-0.2c0.2,0,0.4-0.1,0.6-0.1c0.2,0,0.5,0,0.7,0h19.2c0.2,0,0.5,0,0.7,0s0.4,0.1,0.6,0.1s0.3,0.1,0.4,0.2
			s0.2,0.1,0.2,0.2l0.8,5.3c0,0.1,0,0.1-0.1,0.2c-0.1,0.1-0.2,0.1-0.4,0.2c-0.2,0-0.4,0.1-0.6,0.1c-0.2,0-0.5,0-0.7,0H322.5
			L322.5,299.6z M348.7,299.6c-0.3,0-0.5,0-0.7,0c-0.2,0-0.4-0.1-0.6-0.1c-0.2,0-0.3-0.1-0.4-0.2c-0.1-0.1-0.2-0.1-0.2-0.2l-0.9-5.3
			c0-0.1,0-0.1,0.1-0.2s0.2-0.1,0.4-0.2c0.2,0,0.4-0.1,0.6-0.1s0.5,0,0.7,0h19.2c0.2,0,0.5,0,0.7,0s0.4,0.1,0.6,0.1s0.3,0.1,0.4,0.2
			s0.2,0.1,0.2,0.2l1.3,5.3c0,0.1,0,0.1-0.1,0.2c-0.1,0.1-0.2,0.1-0.4,0.2c-0.2,0-0.4,0.1-0.6,0.1c-0.2,0-0.5,0-0.7,0H348.7
			L348.7,299.6z M374.9,299.5c-0.3,0-0.5,0-0.7,0c-0.2,0-0.4-0.1-0.6-0.1c-0.2,0-0.3-0.1-0.4-0.2c-0.1-0.1-0.2-0.1-0.2-0.2l-1.4-5.3
			c0-0.1,0-0.1,0.1-0.2s0.2-0.1,0.4-0.2c0.1,0,0.3-0.1,0.5-0.1s0.5,0,0.7,0h19.2c0.2,0,0.5,0,0.7,0s0.4,0.1,0.6,0.1s0.3,0.1,0.5,0.2
			c0.1,0.1,0.2,0.1,0.2,0.2l1.8,5.3c0,0.1,0,0.1-0.1,0.2c-0.1,0.1-0.2,0.1-0.4,0.2c-0.1,0-0.3,0.1-0.6,0.1c-0.2,0-0.5,0-0.7,0H374.9
			L374.9,299.5z M401.1,299.5c-0.3,0-0.5,0-0.7,0c-0.2,0-0.5-0.1-0.6-0.1c-0.2,0-0.3-0.1-0.5-0.2c-0.1-0.1-0.2-0.1-0.2-0.2l-1.8-5.3
			c0-0.1,0-0.1,0.1-0.2c0.1-0.1,0.2-0.1,0.3-0.2c0.1,0,0.3-0.1,0.5-0.1s0.5,0,0.7,0h19.2c0.2,0,0.5,0,0.7,0s0.4,0.1,0.6,0.1
			c0.2,0,0.3,0.1,0.5,0.2s0.2,0.1,0.2,0.2l2.3,5.3c0,0.1,0,0.1-0.1,0.2c-0.1,0.1-0.2,0.1-0.3,0.2c-0.1,0-0.3,0.1-0.5,0.1
			c-0.2,0-0.5,0-0.7,0H401.1L401.1,299.5z M427.3,299.5c-0.3,0-0.5,0-0.8,0s-0.5-0.1-0.6-0.1c-0.2,0-0.4-0.1-0.5-0.2
			c-0.1-0.1-0.2-0.1-0.2-0.2l-2.3-5.3c0-0.1,0-0.1,0.1-0.2s0.2-0.1,0.3-0.2c0.1,0,0.3-0.1,0.5-0.1c0.2,0,0.4,0,0.7,0h19.2
			c0.2,0,0.5,0,0.7,0s0.5,0.1,0.6,0.1s0.4,0.1,0.5,0.2c0.1,0.1,0.2,0.1,0.2,0.2l2.7,5.3c0,0.1,0,0.1,0,0.2c-0.1,0.1-0.2,0.1-0.3,0.2
			c-0.1,0-0.3,0.1-0.5,0.1c-0.2,0-0.5,0-0.7,0H427.3L427.3,299.5z M452.9,299.5c-0.3,0-0.5,0-0.8,0s-0.5-0.1-0.6-0.1
			c-0.2,0-0.4-0.1-0.5-0.2c-0.1-0.1-0.2-0.1-0.2-0.2l-2.8-5.3c0-0.1,0-0.1,0-0.2s0.2-0.1,0.3-0.2c0.1,0,0.3-0.1,0.5-0.1s0.4,0,0.7,0
			l32.2,0c0.2,0,0.5,0,0.7,0s0.5,0.1,0.6,0.1s0.4,0.1,0.5,0.2c0.1,0.1,0.2,0.1,0.3,0.2l3.5,5.3c0,0.1,0,0.1,0,0.2
			c0,0.1-0.1,0.1-0.3,0.2c-0.1,0-0.3,0.1-0.5,0.1s-0.4,0-0.7,0L452.9,299.5L452.9,299.5z M116.4,292.6c-0.2,0-0.5,0-0.7,0
			s-0.4-0.1-0.5-0.1s-0.2-0.1-0.3-0.2c-0.1-0.1-0.1-0.1,0-0.2l1.7-2.7c0-0.1,0.1-0.1,0.3-0.2s0.3-0.1,0.5-0.2c0.2,0,0.4-0.1,0.6-0.1
			c0.2,0,0.5,0,0.7,0h20.9c0.2,0,0.5,0,0.7,0s0.4,0.1,0.5,0.1c0.1,0,0.2,0.1,0.3,0.2s0.1,0.1,0,0.2l-1.5,2.7c0,0.1-0.1,0.1-0.2,0.2
			c-0.1,0.1-0.3,0.1-0.5,0.2c-0.2,0-0.4,0.1-0.6,0.1s-0.5,0-0.7,0L116.4,292.6C116.4,292.6,116.4,292.6,116.4,292.6
			C116.4,292.6,116.4,292.6,116.4,292.6C116.4,292.6,116.4,292.6,116.4,292.6L116.4,292.6L116.4,292.6z M143.8,292.6
			c-0.2,0-0.5,0-0.7,0c-0.2,0-0.4-0.1-0.5-0.1s-0.2-0.1-0.3-0.2c-0.1-0.1-0.1-0.1,0-0.2l1.5-2.7c0-0.1,0.1-0.1,0.2-0.2
			c0.1-0.1,0.3-0.1,0.5-0.2c0.2,0,0.4-0.1,0.6-0.1c0.2,0,0.5,0,0.7,0h20.9c0.2,0,0.5,0,0.7,0c0.2,0,0.4,0.1,0.5,0.1s0.2,0.1,0.3,0.2
			s0.1,0.1,0.1,0.2l-1.2,2.7c0,0.1-0.1,0.1-0.2,0.2c-0.1,0.1-0.3,0.1-0.5,0.2c-0.2,0-0.4,0.1-0.6,0.1c-0.2,0-0.5,0-0.7,0h-10.6h12.4
			h-12.4L143.8,292.6L143.8,292.6L143.8,292.6C143.8,292.6,143.8,292.6,143.8,292.6C143.8,292.6,143.8,292.6,143.8,292.6H142H143.8
			L143.8,292.6z M171.2,292.6c-0.2,0-0.5,0-0.7,0c-0.2,0-0.4-0.1-0.5-0.1s-0.2-0.1-0.3-0.2c-0.1-0.1-0.1-0.1-0.1-0.2l1.2-2.7
			c0-0.1,0.1-0.1,0.2-0.2s0.3-0.1,0.5-0.2c0.2,0,0.4-0.1,0.6-0.1c0.2,0,0.5,0,0.7,0h20.9c0.2,0,0.5,0,0.7,0c0.2,0,0.4,0.1,0.5,0.1
			c0.1,0,0.3,0.1,0.3,0.2s0.1,0.1,0.1,0.2l-1,2.7c0,0.1-0.1,0.1-0.2,0.2s-0.3,0.1-0.4,0.2c-0.2,0-0.4,0.1-0.6,0.1s-0.5,0-0.7,0
			L171.2,292.6L171.2,292.6z M198.6,292.6c-0.2,0-0.5,0-0.7,0c-0.2,0-0.4-0.1-0.5-0.1s-0.3-0.1-0.3-0.2c-0.1-0.1-0.1-0.1-0.1-0.2
			l1-2.7c0-0.1,0.1-0.1,0.2-0.2s0.3-0.1,0.4-0.2c0.2,0,0.4-0.1,0.6-0.1s0.5,0,0.7,0h20.9c0.2,0,0.5,0,0.7,0s0.4,0.1,0.5,0.1
			s0.3,0.1,0.3,0.2c0.1,0.1,0.1,0.1,0.1,0.2l-0.7,2.7c0,0.1-0.1,0.1-0.2,0.2s-0.3,0.1-0.4,0.2c-0.2,0-0.4,0.1-0.6,0.1s-0.5,0-0.7,0
			H198.6L198.6,292.6z M226.1,292.6c-0.2,0-0.5,0-0.7,0c-0.2,0-0.4-0.1-0.6-0.1c-0.1,0-0.3-0.1-0.4-0.2s-0.1-0.1-0.1-0.2l0.7-2.7
			c0-0.1,0.1-0.1,0.2-0.2c0.1-0.1,0.2-0.1,0.4-0.2c0.2,0,0.4-0.1,0.6-0.1s0.5,0,0.7,0h20.9c0.2,0,0.5,0,0.7,0c0.2,0,0.4,0.1,0.6,0.1
			s0.3,0.1,0.4,0.2s0.1,0.1,0.1,0.2l-0.5,2.7c0,0.1-0.1,0.1-0.2,0.2c-0.1,0.1-0.2,0.1-0.4,0.2c-0.2,0-0.4,0.1-0.6,0.1s-0.5,0-0.7,0
			L226.1,292.6L226.1,292.6z M253.4,292.6c-0.2,0-0.5,0-0.7,0s-0.4-0.1-0.6-0.1s-0.3-0.1-0.4-0.2c-0.1-0.1-0.1-0.1-0.1-0.2l0.4-2.7
			c0-0.1,0.1-0.1,0.2-0.2c0.1-0.1,0.2-0.1,0.4-0.2c0.2,0,0.4-0.1,0.6-0.1c0.2,0,0.5,0,0.7,0h20.9c0.2,0,0.5,0,0.7,0
			c0.2,0,0.4,0.1,0.6,0.1c0.2,0,0.3,0.1,0.4,0.2s0.1,0.1,0.1,0.2l-0.2,2.7c0,0.1-0.1,0.1-0.2,0.2s-0.2,0.1-0.4,0.2
			c-0.2,0-0.4,0.1-0.6,0.1s-0.5,0-0.7,0L253.4,292.6L253.4,292.6z M280.9,292.6c-0.2,0-0.5,0-0.7,0s-0.4-0.1-0.6-0.1
			c-0.2,0-0.3-0.1-0.4-0.2s-0.1-0.1-0.1-0.2l0.2-2.7c0-0.1,0.1-0.1,0.1-0.2s0.2-0.1,0.4-0.2s0.4-0.1,0.6-0.1c0.2,0,0.5,0,0.7,0h20.9
			c0.2,0,0.5,0,0.7,0c0.2,0,0.4,0.1,0.6,0.1c0.2,0,0.3,0.1,0.4,0.2c0.1,0.1,0.1,0.1,0.1,0.2l0,2.7c0,0.1,0,0.1-0.1,0.2
			c-0.1,0.1-0.2,0.1-0.4,0.2c-0.2,0-0.4,0.1-0.6,0.1s-0.5,0-0.7,0L280.9,292.6L280.9,292.6z M308.2,292.6c-0.2,0-0.5,0-0.7,0
			s-0.4-0.1-0.6-0.1c-0.2,0-0.3-0.1-0.4-0.2c-0.1-0.1-0.1-0.1-0.1-0.2l-0.1-2.7c0-0.1,0-0.1,0.1-0.2c0.1-0.1,0.2-0.1,0.4-0.2
			c0.2,0,0.4-0.1,0.6-0.1c0.2,0,0.5,0,0.7,0H329c0.2,0,0.5,0,0.7,0s0.4,0.1,0.6,0.1c0.2,0,0.3,0.1,0.4,0.2s0.2,0.1,0.2,0.2l0.3,2.7
			c0,0.1,0,0.1-0.1,0.2c-0.1,0.1-0.2,0.1-0.4,0.2c-0.2,0-0.4,0.1-0.6,0.1s-0.5,0-0.7,0H308.2L308.2,292.6z M335.6,292.6
			c-0.2,0-0.5,0-0.7,0c-0.2,0-0.4-0.1-0.6-0.1c-0.2,0-0.3-0.1-0.4-0.2s-0.2-0.1-0.2-0.2l-0.3-2.7c0-0.1,0-0.1,0.1-0.2
			c0.1-0.1,0.2-0.1,0.4-0.2c0.2,0,0.4-0.1,0.6-0.1s0.5,0,0.7,0H356c0.2,0,0.5,0,0.7,0c0.2,0,0.4,0.1,0.6,0.1c0.2,0,0.3,0.1,0.4,0.2
			c0.1,0.1,0.2,0.1,0.2,0.2l0.6,2.7c0,0.1,0,0.1-0.1,0.2c-0.1,0.1-0.2,0.1-0.4,0.2c-0.2,0-0.3,0.1-0.6,0.1c-0.2,0-0.5,0-0.7,0H335.6
			L335.6,292.6z M363,292.5c-0.2,0-0.5,0-0.7,0s-0.4-0.1-0.6-0.1s-0.3-0.1-0.4-0.2s-0.2-0.1-0.2-0.2l-0.6-2.7c0-0.1,0-0.1,0.1-0.2
			c0.1-0.1,0.2-0.1,0.4-0.2c0.1,0,0.3-0.1,0.5-0.1c0.2,0,0.5,0,0.7,0H383c0.2,0,0.5,0,0.7,0c0.2,0,0.4,0.1,0.6,0.1
			c0.2,0,0.3,0.1,0.4,0.2s0.2,0.1,0.2,0.2l0.8,2.7c0,0.1,0,0.1-0.1,0.2c-0.1,0.1-0.2,0.1-0.4,0.2c-0.1,0-0.3,0.1-0.5,0.1
			s-0.5,0-0.7,0L363,292.5L363,292.5z M390.4,292.5c-0.2,0-0.5,0-0.7,0s-0.4-0.1-0.6-0.1s-0.3-0.1-0.4-0.2s-0.2-0.1-0.2-0.2
			l-0.9-2.7c0-0.1,0-0.1,0.1-0.2c0.1-0.1,0.2-0.1,0.3-0.2c0.1,0,0.3-0.1,0.5-0.1c0.2,0,0.4,0,0.7,0h20.9c0.2,0,0.5,0,0.7,0
			s0.4,0.1,0.6,0.1c0.2,0,0.3,0.1,0.5,0.2c0.1,0.1,0.2,0.1,0.2,0.2l1.1,2.7c0,0.1,0,0.1-0.1,0.2s-0.2,0.1-0.3,0.2
			c-0.1,0-0.3,0.1-0.5,0.1c-0.2,0-0.4,0-0.7,0H390.4L390.4,292.5z M417.8,292.5c-0.2,0-0.5,0-0.7,0s-0.4-0.1-0.6-0.1
			s-0.3-0.1-0.5-0.2s-0.2-0.1-0.2-0.2l-1.1-2.7c0-0.1,0-0.1,0.1-0.2c0.1-0.1,0.2-0.1,0.3-0.2c0.1,0,0.3-0.1,0.5-0.1
			c0.2,0,0.4,0,0.7,0h20.9c0.2,0,0.5,0,0.7,0c0.2,0,0.4,0.1,0.6,0.1c0.2,0,0.3,0.1,0.5,0.2s0.2,0.1,0.2,0.2l1.4,2.7
			c0,0.1,0,0.1,0,0.2s-0.2,0.1-0.3,0.2c-0.1,0-0.3,0.1-0.5,0.1s-0.4,0-0.7,0H417.8L417.8,292.5z M445.2,292.5c-0.2,0-0.5,0-0.7,0
			s-0.5-0.1-0.6-0.1c-0.2,0-0.4-0.1-0.5-0.2s-0.2-0.1-0.2-0.2l-1.4-2.7c0-0.1,0-0.1,0-0.2s0.2-0.1,0.3-0.2c0.1,0,0.3-0.1,0.5-0.1
			c0.2,0,0.4,0,0.7,0h20.9c0.2,0,0.5,0,0.7,0c0.2,0,0.4,0.1,0.6,0.1s0.4,0.1,0.5,0.2s0.2,0.1,0.2,0.2l1.6,2.7c0,0.1,0,0.1,0,0.2
			s-0.2,0.1-0.3,0.2c-0.1,0-0.3,0.1-0.5,0.1c-0.2,0-0.4,0-0.7,0H445.2L445.2,292.5z M471.6,292.5c-0.2,0-0.4,0-0.6,0s-0.4,0-0.5-0.1
			c-0.1,0-0.3-0.1-0.4-0.1c-0.1,0-0.2-0.1-0.2-0.2l-1.8-2.9c0,0,0-0.1,0-0.1c0,0,0.1-0.1,0.2-0.1c0.1,0,0.2-0.1,0.4-0.1s0.3,0,0.5,0
			h9.9c0.2,0,0.4,0,0.6,0c0.2,0,0.4,0,0.5,0.1c0.1,0,0.3,0.1,0.4,0.1c0.1,0,0.2,0.1,0.2,0.1l1.9,2.9c0,0.1,0,0.1,0,0.2
			s-0.1,0.1-0.2,0.1c-0.1,0-0.2,0.1-0.4,0.1s-0.3,0-0.5,0H471.6L471.6,292.5z M485.3,283.5l-372.9,0.1c-1.6,0-3.2,0.1-4.7,0.2
			s-2.9,0.4-4.2,0.7s-2.4,0.6-3.2,1s-1.5,0.8-1.8,1.2l-65.6,91.9c-0.5,0.8-0.6,1.5-0.3,2.2c0.3,0.7,1,1.3,2.1,1.8
			c1.1,0.5,2.5,0.9,4.2,1.2c1.7,0.3,3.7,0.5,5.9,0.5h0h0h0h0l508.6-0.1c2.2,0,4.2-0.2,5.9-0.5c1.7-0.3,3.1-0.7,4.2-1.2
			s1.8-1.1,2.1-1.8s0.2-1.4-0.3-2.2l-65.9-91.9c-0.3-0.4-0.9-0.9-1.8-1.2c-0.9-0.4-2-0.7-3.2-1s-2.7-0.5-4.2-0.7
			C488.5,283.6,486.9,283.5,485.3,283.5L485.3,283.5z"/>
		<path class="st23" d="M387.1,335.6L387.1,335.6C387.1,335.6,387.1,335.6,387.1,335.6C387.1,335.6,387.1,335.6,387.1,335.6
			C387.1,335.6,387.1,335.6,387.1,335.6l-176.2,0c-0.8,0-1.5,0-2.1,0.1c-0.7,0.1-1.3,0.2-1.8,0.4c-0.5,0.2-1,0.3-1.3,0.5
			s-0.6,0.4-0.6,0.7l-11.8,41.7c-0.1,0.3,0,0.6,0.2,0.9c0.2,0.3,0.6,0.5,1.1,0.7c0.5,0.2,1.1,0.4,1.8,0.5c0.7,0.1,1.5,0.2,2.4,0.2
			l200.7,0c0.9,0,1.6-0.1,2.4-0.2c0.7-0.1,1.3-0.3,1.8-0.5s0.9-0.4,1.1-0.7c0.2-0.3,0.3-0.6,0.2-0.9l-12-41.7
			c-0.1-0.2-0.3-0.5-0.6-0.7c-0.3-0.2-0.8-0.4-1.3-0.5c-0.5-0.2-1.1-0.3-1.8-0.4C388.6,335.6,387.9,335.6,387.1,335.6L387.1,335.6z"
			/>
		<path class="st0" d="M437.1,288.8h-20.9c-0.2,0-0.5,0-0.7,0c-0.2,0-0.4,0.1-0.5,0.1c-0.1,0-0.2,0.1-0.3,0.2s-0.1,0.1-0.1,0.2
			l1.1,2.7c0,0.1,0.1,0.1,0.2,0.2c0.1,0.1,0.3,0.1,0.5,0.2c0.2,0,0.4,0.1,0.6,0.1c0.2,0,0.5,0,0.7,0H439c0.2,0,0.5,0,0.7,0
			c0.2,0,0.4-0.1,0.5-0.1c0.1,0,0.2-0.1,0.3-0.2s0.1-0.1,0-0.2l-1.4-2.7c0-0.1-0.1-0.1-0.2-0.2s-0.3-0.1-0.5-0.2
			c-0.2,0-0.4-0.1-0.6-0.1C437.6,288.8,437.4,288.8,437.1,288.8L437.1,288.8z"/>
		<path class="st0" d="M410.1,288.8h-20.9c-0.2,0-0.5,0-0.7,0s-0.4,0.1-0.5,0.1c-0.1,0-0.3,0.1-0.3,0.2c-0.1,0.1-0.1,0.1-0.1,0.2
			l0.9,2.7c0,0.1,0.1,0.1,0.2,0.2s0.3,0.1,0.4,0.2c0.2,0,0.4,0.1,0.6,0.1s0.5,0,0.7,0h21.1c0.2,0,0.5,0,0.7,0c0.2,0,0.4-0.1,0.5-0.1
			s0.3-0.1,0.3-0.2c0.1-0.1,0.1-0.1,0.1-0.2l-1.1-2.7c0-0.1-0.1-0.1-0.2-0.2c-0.1-0.1-0.3-0.1-0.5-0.2c-0.2,0-0.4-0.1-0.6-0.1
			C410.6,288.9,410.3,288.8,410.1,288.8L410.1,288.8z"/>
		<path class="st0" d="M383,288.8h-20.9c-0.2,0-0.5,0-0.7,0c-0.2,0-0.4,0.1-0.5,0.1c-0.1,0-0.3,0.1-0.4,0.2
			c-0.1,0.1-0.1,0.1-0.1,0.2l0.6,2.7c0,0.1,0.1,0.1,0.2,0.2c0.1,0.1,0.2,0.1,0.4,0.2c0.2,0,0.4,0.1,0.6,0.1s0.5,0,0.7,0h21.1
			c0.2,0,0.5,0,0.7,0s0.4-0.1,0.5-0.1s0.3-0.1,0.4-0.2c0.1-0.1,0.1-0.1,0.1-0.2l-0.8-2.7c0-0.1-0.1-0.1-0.2-0.2
			c-0.1-0.1-0.3-0.1-0.4-0.2c-0.2,0-0.4-0.1-0.6-0.1C383.5,288.9,383.3,288.8,383,288.8L383,288.8z"/>
		<path class="st0" d="M356,288.8h-20.9c-0.2,0-0.5,0-0.7,0c-0.2,0-0.4,0.1-0.6,0.1c-0.2,0-0.3,0.1-0.4,0.2s-0.1,0.1-0.1,0.2
			l0.3,2.7c0,0.1,0.1,0.1,0.2,0.2s0.2,0.1,0.4,0.2c0.2,0,0.4,0.1,0.6,0.1s0.5,0,0.7,0h21.1c0.2,0,0.5,0,0.7,0c0.2,0,0.4-0.1,0.6-0.1
			s0.3-0.1,0.4-0.2s0.1-0.1,0.1-0.2l-0.6-2.7c0-0.1-0.1-0.1-0.2-0.2s-0.2-0.1-0.4-0.2c-0.2,0-0.4-0.1-0.6-0.1
			C356.5,288.9,356.3,288.8,356,288.8L356,288.8z"/>
		<path class="st0" d="M329,288.9h-20.9c-0.2,0-0.5,0-0.7,0c-0.2,0-0.4,0.1-0.6,0.1c-0.2,0-0.3,0.1-0.4,0.2
			c-0.1,0.1-0.1,0.1-0.1,0.2l0.1,2.7c0,0.1,0,0.1,0.1,0.2c0.1,0.1,0.2,0.1,0.4,0.2c0.2,0,0.4,0.1,0.6,0.1s0.5,0,0.7,0h21.1
			c0.2,0,0.5,0,0.7,0c0.2,0,0.4-0.1,0.6-0.1s0.3-0.1,0.4-0.2s0.1-0.1,0.1-0.2l-0.3-2.7c0-0.1-0.1-0.1-0.2-0.2
			c-0.1-0.1-0.2-0.1-0.4-0.2c-0.2,0-0.4-0.1-0.6-0.1C329.5,288.9,329.2,288.9,329,288.9L329,288.9z"/>
		<path class="st0" d="M301.9,288.9h-20.9c-0.2,0-0.5,0-0.7,0c-0.2,0-0.4,0.1-0.6,0.1s-0.3,0.1-0.4,0.2s-0.1,0.1-0.1,0.2l-0.2,2.7
			c0,0.1,0,0.1,0.1,0.2s0.2,0.1,0.4,0.2c0.2,0,0.4,0.1,0.6,0.1s0.5,0,0.7,0H302c0.2,0,0.5,0,0.7,0s0.4-0.1,0.6-0.1
			c0.2,0,0.3-0.1,0.4-0.2c0.1-0.1,0.1-0.1,0.1-0.2l0-2.7c0-0.1,0-0.1-0.1-0.2c-0.1-0.1-0.2-0.1-0.4-0.2c-0.2,0-0.4-0.1-0.6-0.1
			C302.4,288.9,302.2,288.9,301.9,288.9L301.9,288.9z"/>
		<path class="st0" d="M274.9,288.9H254c-0.2,0-0.5,0-0.7,0c-0.2,0-0.4,0.1-0.6,0.1s-0.3,0.1-0.4,0.2s-0.2,0.1-0.2,0.2l-0.4,2.7
			c0,0.1,0,0.1,0.1,0.2s0.2,0.1,0.4,0.2c0.2,0,0.4,0.1,0.6,0.1s0.4,0,0.7,0h21.1c0.2,0,0.5,0,0.7,0s0.4-0.1,0.6-0.1
			c0.2,0,0.3-0.1,0.4-0.2c0.1-0.1,0.1-0.1,0.2-0.2l0.2-2.7c0-0.1,0-0.1-0.1-0.2s-0.2-0.1-0.4-0.2c-0.2,0-0.4-0.1-0.6-0.1
			C275.4,288.9,275.1,288.9,274.9,288.9L274.9,288.9z"/>
		<path class="st0" d="M247.9,288.9H227c-0.2,0-0.5,0-0.7,0s-0.4,0.1-0.6,0.1c-0.2,0-0.3,0.1-0.4,0.2c-0.1,0.1-0.2,0.1-0.2,0.2
			l-0.7,2.7c0,0.1,0,0.1,0.1,0.2c0.1,0.1,0.2,0.1,0.4,0.2c0.1,0,0.3,0.1,0.6,0.1c0.2,0,0.4,0,0.7,0h21.1c0.2,0,0.5,0,0.7,0
			c0.2,0,0.4-0.1,0.6-0.1c0.2,0,0.3-0.1,0.4-0.2c0.1-0.1,0.2-0.1,0.2-0.2l0.5-2.7c0-0.1,0-0.1-0.1-0.2s-0.2-0.1-0.4-0.2
			c-0.2,0-0.4-0.1-0.6-0.1C248.3,288.9,248.1,288.9,247.9,288.9L247.9,288.9z"/>
		<path class="st0" d="M220.8,288.9h-20.9c-0.2,0-0.5,0-0.7,0s-0.4,0.1-0.6,0.1c-0.2,0-0.3,0.1-0.4,0.2s-0.2,0.1-0.2,0.2l-1,2.7
			c0,0.1,0,0.1,0.1,0.2s0.2,0.1,0.3,0.2c0.1,0,0.3,0.1,0.5,0.1c0.2,0,0.4,0,0.7,0h21.1c0.2,0,0.5,0,0.7,0s0.4-0.1,0.6-0.1
			c0.2,0,0.3-0.1,0.4-0.2c0.1-0.1,0.2-0.1,0.2-0.2l0.7-2.7c0-0.1,0-0.1-0.1-0.2c-0.1-0.1-0.2-0.1-0.3-0.2s-0.3-0.1-0.5-0.1
			C221.3,288.9,221.1,288.9,220.8,288.9L220.8,288.9z"/>
		<path class="st0" d="M139.7,288.9h-20.9c-0.2,0-0.5,0-0.7,0s-0.4,0.1-0.6,0.1c-0.2,0-0.4,0.1-0.5,0.2s-0.2,0.1-0.3,0.2l-1.7,2.7
			c0,0.1,0,0.1,0,0.2s0.2,0.1,0.3,0.2c0.1,0,0.3,0.1,0.5,0.1s0.4,0,0.7,0c0,0,0,0,0,0s0,0,0,0c0,0,0,0,0,0c0,0,0,0,0,0h21.1
			c0.2,0,0.5,0,0.7,0s0.4-0.1,0.6-0.1s0.4-0.1,0.5-0.2c0.1-0.1,0.2-0.1,0.2-0.2l1.5-2.7c0-0.1,0-0.1,0-0.2c-0.1-0.1-0.2-0.1-0.3-0.2
			c-0.1,0-0.3-0.1-0.5-0.1C140.2,288.9,139.9,288.9,139.7,288.9L139.7,288.9z"/>
		<path class="st0" d="M443.7,293.2h-19.2c-0.2,0-0.5,0-0.7,0c-0.2,0-0.4,0.1-0.5,0.1c-0.1,0-0.3,0.1-0.3,0.2
			c-0.1,0.1-0.1,0.1-0.1,0.2l2.3,5.3c0,0.1,0.1,0.1,0.2,0.2c0.1,0.1,0.3,0.1,0.5,0.2c0.2,0,0.4,0.1,0.6,0.1c0.2,0,0.5,0,0.8,0h19.6
			c0.3,0,0.5,0,0.7,0s0.4-0.1,0.5-0.1c0.1,0,0.2-0.1,0.3-0.2c0.1-0.1,0.1-0.1,0-0.2l-2.7-5.3c0-0.1-0.1-0.1-0.2-0.2
			c-0.1-0.1-0.3-0.1-0.5-0.2c-0.2,0-0.4-0.1-0.6-0.1C444.2,293.2,443.9,293.2,443.7,293.2L443.7,293.2z"/>
		<path class="st0" d="M481.7,293.2l-32.2,0c-0.2,0-0.5,0-0.7,0s-0.4,0.1-0.5,0.1c-0.1,0-0.2,0.1-0.3,0.2s-0.1,0.1,0,0.2l2.8,5.3
			c0,0.1,0.1,0.1,0.2,0.2c0.1,0.1,0.3,0.1,0.5,0.2c0.2,0,0.4,0.1,0.6,0.1c0.2,0,0.5,0,0.8,0h32.9c0.3,0,0.5,0,0.7,0s0.4-0.1,0.5-0.1
			c0.1,0,0.2-0.1,0.3-0.2c0-0.1,0.1-0.1,0-0.2l-3.5-5.3c0-0.1-0.1-0.1-0.3-0.2c-0.1-0.1-0.3-0.1-0.5-0.2s-0.4-0.1-0.6-0.1
			C482.2,293.2,482,293.2,481.7,293.2L481.7,293.2z"/>
		<path class="st0" d="M418.1,293.2h-19.2c-0.2,0-0.5,0-0.7,0c-0.2,0-0.4,0.1-0.5,0.1s-0.3,0.1-0.3,0.2s-0.1,0.1-0.1,0.2l1.8,5.3
			c0,0.1,0.1,0.1,0.2,0.2c0.1,0.1,0.3,0.1,0.5,0.2c0.2,0,0.4,0.1,0.6,0.1c0.2,0,0.5,0,0.7,0h19.6c0.3,0,0.5,0,0.7,0s0.4-0.1,0.5-0.1
			c0.1,0,0.3-0.1,0.3-0.2c0.1-0.1,0.1-0.1,0.1-0.2l-2.3-5.3c0-0.1-0.1-0.1-0.2-0.2c-0.1-0.1-0.3-0.1-0.5-0.2c-0.2,0-0.4-0.1-0.6-0.1
			C418.6,293.2,418.3,293.2,418.1,293.2L418.1,293.2z"/>
		<path class="st0" d="M392.4,293.2h-19.2c-0.2,0-0.5,0-0.7,0c-0.2,0-0.4,0.1-0.5,0.1s-0.3,0.1-0.4,0.2s-0.1,0.1-0.1,0.2l1.4,5.3
			c0,0.1,0.1,0.1,0.2,0.2c0.1,0.1,0.3,0.1,0.4,0.2c0.2,0,0.4,0.1,0.6,0.1c0.2,0,0.5,0,0.7,0h19.6c0.3,0,0.5,0,0.7,0s0.4-0.1,0.6-0.1
			c0.1,0,0.3-0.1,0.4-0.2c0.1-0.1,0.1-0.1,0.1-0.2l-1.8-5.3c0-0.1-0.1-0.1-0.2-0.2s-0.3-0.1-0.5-0.2c-0.2,0-0.4-0.1-0.6-0.1
			S392.7,293.2,392.4,293.2L392.4,293.2z"/>
		<path class="st0" d="M366.8,293.2h-19.2c-0.2,0-0.5,0-0.7,0s-0.4,0.1-0.6,0.1s-0.3,0.1-0.4,0.2s-0.1,0.1-0.1,0.2l0.9,5.3
			c0,0.1,0.1,0.1,0.2,0.2c0.1,0.1,0.2,0.1,0.4,0.2c0.2,0,0.4,0.1,0.6,0.1c0.2,0,0.5,0,0.7,0h19.6c0.3,0,0.5,0,0.7,0s0.4-0.1,0.6-0.1
			c0.2,0,0.3-0.1,0.4-0.2c0.1-0.1,0.1-0.1,0.1-0.2l-1.3-5.3c0-0.1-0.1-0.1-0.2-0.2c-0.1-0.1-0.2-0.1-0.4-0.2c-0.2,0-0.4-0.1-0.6-0.1
			C367.3,293.2,367.1,293.2,366.8,293.2L366.8,293.2z"/>
		<path class="st0" d="M341.2,293.2H322c-0.2,0-0.5,0-0.7,0s-0.4,0.1-0.6,0.1s-0.3,0.1-0.4,0.2s-0.1,0.1-0.1,0.2l0.4,5.3
			c0,0.1,0.1,0.1,0.2,0.2c0.1,0.1,0.2,0.1,0.4,0.2c0.2,0,0.4,0.1,0.6,0.1c0.2,0,0.5,0,0.7,0h19.6c0.3,0,0.5,0,0.7,0s0.4-0.1,0.6-0.1
			c0.2,0,0.3-0.1,0.4-0.2c0.1-0.1,0.1-0.1,0.1-0.2l-0.8-5.3c0-0.1-0.1-0.1-0.2-0.2c-0.1-0.1-0.2-0.1-0.4-0.2s-0.4-0.1-0.6-0.1
			S341.4,293.2,341.2,293.2L341.2,293.2z"/>
		<path class="st0" d="M315.6,293.2h-19.2c-0.2,0-0.5,0-0.7,0s-0.4,0.1-0.6,0.1c-0.2,0-0.3,0.1-0.4,0.2c-0.1,0.1-0.1,0.1-0.1,0.2
			l-0.1,5.3c0,0.1,0,0.1,0.1,0.2c0.1,0.1,0.2,0.1,0.4,0.2c0.2,0,0.4,0.1,0.6,0.1c0.2,0,0.5,0,0.7,0c0,0,0,0,0,0c0,0,0,0,0,0
			c0,0,0,0,0,0c0,0,0,0,0,0H316c0.3,0,0.5,0,0.7,0c0.2,0,0.4-0.1,0.6-0.1c0.2,0,0.3-0.1,0.4-0.2c0.1-0.1,0.1-0.1,0.1-0.2l-0.4-5.3
			c0-0.1-0.1-0.1-0.2-0.2s-0.2-0.1-0.4-0.2c-0.2,0-0.4-0.1-0.6-0.1C316.1,293.2,315.8,293.2,315.6,293.2L315.6,293.2z"/>
		<path class="st0" d="M289.9,293.2h-19.2c-0.2,0-0.5,0-0.7,0c-0.2,0-0.4,0.1-0.6,0.1c-0.2,0-0.3,0.1-0.4,0.2s-0.2,0.1-0.2,0.2
			l-0.5,5.3c0,0.1,0,0.1,0.1,0.2c0.1,0.1,0.2,0.1,0.4,0.2c0.2,0,0.4,0.1,0.6,0.1c0.2,0,0.5,0,0.7,0h19.6c0.3,0,0.5,0,0.7,0
			c0.2,0,0.4-0.1,0.6-0.1c0.2,0,0.3-0.1,0.4-0.2c0.1-0.1,0.1-0.1,0.1-0.2l0.1-5.3c0-0.1,0-0.1-0.1-0.2s-0.2-0.1-0.4-0.2
			c-0.2,0-0.4-0.1-0.6-0.1C290.4,293.2,290.2,293.2,289.9,293.2L289.9,293.2z"/>
		<path class="st0" d="M264.3,293.2h-19.2c-0.2,0-0.5,0-0.7,0s-0.4,0.1-0.6,0.1c-0.2,0-0.3,0.1-0.4,0.2c-0.1,0.1-0.2,0.1-0.2,0.2
			l-1,5.3c0,0.1,0,0.1,0.1,0.2c0.1,0.1,0.2,0.1,0.4,0.2c0.2,0,0.4,0.1,0.6,0.1c0.2,0,0.5,0,0.7,0h19.6c0.3,0,0.5,0,0.7,0
			c0.2,0,0.4-0.1,0.6-0.1c0.2,0,0.3-0.1,0.4-0.2c0.1-0.1,0.2-0.1,0.2-0.2l0.6-5.3c0-0.1,0-0.1-0.1-0.2c-0.1-0.1-0.2-0.1-0.4-0.2
			c-0.2,0-0.4-0.1-0.6-0.1C264.8,293.2,264.6,293.2,264.3,293.2L264.3,293.2z"/>
		<path class="st0" d="M238.7,293.2h-19.2c-0.2,0-0.5,0-0.7,0s-0.4,0.1-0.6,0.1c-0.2,0-0.3,0.1-0.4,0.2s-0.2,0.1-0.2,0.2l-1.5,5.3
			c0,0.1,0,0.1,0.1,0.2c0.1,0.1,0.2,0.1,0.4,0.2c0.2,0,0.4,0.1,0.6,0.1c0.2,0,0.5,0,0.7,0h19.6c0.3,0,0.5,0,0.7,0
			c0.2,0,0.4-0.1,0.6-0.1c0.2,0,0.3-0.1,0.4-0.2c0.1-0.1,0.2-0.1,0.2-0.2l1.1-5.3c0-0.1,0-0.1-0.1-0.2s-0.2-0.1-0.4-0.2
			c-0.2,0-0.4-0.1-0.6-0.1C239.2,293.2,238.9,293.2,238.7,293.2L238.7,293.2z"/>
		<path class="st0" d="M213.1,293.2h-19.2c-0.2,0-0.5,0-0.7,0s-0.4,0.1-0.6,0.1s-0.3,0.1-0.5,0.2c-0.1,0.1-0.2,0.1-0.2,0.2l-2,5.3
			c0,0.1,0,0.1,0.1,0.2c0.1,0.1,0.2,0.1,0.3,0.2c0.1,0,0.3,0.1,0.6,0.1c0.2,0,0.5,0,0.7,0h19.6c0.3,0,0.5,0,0.7,0
			c0.2,0,0.4-0.1,0.6-0.1c0.2,0,0.3-0.1,0.4-0.2c0.1-0.1,0.2-0.1,0.2-0.2l1.6-5.3c0-0.1,0-0.1-0.1-0.2c-0.1-0.1-0.2-0.1-0.3-0.2
			c-0.1,0-0.3-0.1-0.6-0.1C213.6,293.2,213.3,293.2,213.1,293.2L213.1,293.2z"/>
		<path class="st0" d="M187.4,293.2h-19.2c-0.2,0-0.5,0-0.7,0s-0.4,0.1-0.6,0.1s-0.3,0.1-0.5,0.2c-0.1,0.1-0.2,0.1-0.2,0.2l-2.5,5.3
			c0,0.1,0,0.1,0.1,0.2s0.2,0.1,0.3,0.2c0.1,0,0.3,0.1,0.5,0.1c0.2,0,0.4,0,0.7,0c0,0,0,0,0,0s0,0,0,0c0,0,0,0,0,0c0,0,0,0,0,0H185
			c0.3,0,0.5,0,0.8,0c0.2,0,0.4-0.1,0.6-0.1c0.2,0,0.4-0.1,0.5-0.2c0.1-0.1,0.2-0.1,0.2-0.2l2-5.3c0-0.1,0-0.1-0.1-0.2
			s-0.2-0.1-0.3-0.2c-0.1,0-0.3-0.1-0.5-0.1C187.9,293.2,187.7,293.2,187.4,293.2L187.4,293.2z"/>
		<path class="st0" d="M161.8,293.2h-19.2c-0.2,0-0.5,0-0.7,0c-0.2,0-0.4,0.1-0.6,0.1s-0.4,0.1-0.5,0.2c-0.1,0.1-0.2,0.1-0.3,0.2
			l-2.9,5.3c0,0.1,0,0.1,0,0.2c0.1,0.1,0.2,0.1,0.3,0.2c0.1,0,0.3,0.1,0.5,0.1c0.2,0,0.4,0,0.7,0h19.6c0.3,0,0.5,0,0.8,0
			s0.5-0.1,0.6-0.1c0.2,0,0.4-0.1,0.5-0.2c0.1-0.1,0.2-0.1,0.2-0.2l2.5-5.3c0-0.1,0-0.1-0.1-0.2s-0.2-0.1-0.3-0.2
			c-0.1,0-0.3-0.1-0.5-0.1C162.3,293.2,162.1,293.2,161.8,293.2L161.8,293.2z"/>
		<path class="st0" d="M460.3,300.3h-19.7c-0.3,0-0.5,0-0.7,0s-0.4,0.1-0.5,0.1s-0.3,0.1-0.3,0.2c-0.1,0.1-0.1,0.1,0,0.2l2.7,5.6
			c0,0.1,0.1,0.1,0.2,0.2s0.3,0.1,0.5,0.2c0.2,0,0.4,0.1,0.7,0.1s0.5,0,0.8,0H464c0.3,0,0.5,0,0.7,0c0.2,0,0.4-0.1,0.5-0.1
			s0.2-0.1,0.3-0.2s0.1-0.1,0-0.2l-3.1-5.6c0-0.1-0.1-0.1-0.3-0.2c-0.1-0.1-0.3-0.1-0.5-0.2c-0.2,0-0.4-0.1-0.7-0.1
			C460.8,300.3,460.5,300.3,460.3,300.3L460.3,300.3z"/>
		<path class="st0" d="M486.3,300.3h-19.7c-0.3,0-0.5,0-0.7,0c-0.2,0-0.4,0.1-0.5,0.1c-0.1,0-0.2,0.1-0.3,0.2
			c-0.1,0.1-0.1,0.1,0,0.2l3.2,5.6c0,0.1,0.1,0.1,0.3,0.2c0.1,0.1,0.3,0.1,0.5,0.2s0.4,0.1,0.7,0.1s0.5,0,0.8,0h20.1
			c0.3,0,0.5,0,0.7,0c0.2,0,0.4-0.1,0.5-0.1c0.1,0,0.2-0.1,0.3-0.2c0-0.1,0.1-0.1,0-0.2l-3.6-5.6c0-0.1-0.1-0.1-0.3-0.2
			c-0.1-0.1-0.3-0.1-0.5-0.2c-0.2,0-0.4-0.1-0.7-0.1C486.8,300.3,486.5,300.3,486.3,300.3L486.3,300.3z"/>
		<path class="st0" d="M434.1,300.3L434.1,300.3C434,300.3,434,300.3,434.1,300.3C434,300.3,434,300.3,434.1,300.3
			C434,300.3,434,300.3,434.1,300.3h-19.7c-0.3,0-0.5,0-0.7,0c-0.2,0-0.4,0.1-0.5,0.1s-0.3,0.1-0.3,0.2c-0.1,0.1-0.1,0.1-0.1,0.2
			l2.2,5.6c0,0.1,0.1,0.1,0.2,0.2c0.1,0.1,0.3,0.1,0.5,0.2s0.4,0.1,0.7,0.1s0.5,0,0.8,0h20.1c0.3,0,0.5,0,0.7,0
			c0.2,0,0.4-0.1,0.5-0.1s0.3-0.1,0.3-0.2c0.1-0.1,0.1-0.1,0-0.2l-2.6-5.6c0-0.1-0.1-0.1-0.2-0.2c-0.1-0.1-0.3-0.1-0.5-0.2
			c-0.2,0-0.4-0.1-0.6-0.1C434.6,300.3,434.3,300.3,434.1,300.3L434.1,300.3z"/>
		<path class="st0" d="M407.8,300.3h-19.7c-0.3,0-0.5,0-0.7,0s-0.4,0.1-0.6,0.1c-0.1,0-0.3,0.1-0.4,0.2c-0.1,0.1-0.1,0.1-0.1,0.2
			l1.7,5.6c0,0.1,0.1,0.1,0.2,0.2c0.1,0.1,0.3,0.1,0.5,0.2s0.4,0.1,0.6,0.1c0.2,0,0.5,0,0.8,0h20.1c0.3,0,0.5,0,0.7,0
			c0.2,0,0.4-0.1,0.6-0.1c0.1,0,0.3-0.1,0.3-0.2s0.1-0.1,0.1-0.2l-2.1-5.6c0-0.1-0.1-0.1-0.2-0.2c-0.1-0.1-0.3-0.1-0.5-0.2
			c-0.2,0-0.4-0.1-0.6-0.1C408.3,300.3,408,300.3,407.8,300.3L407.8,300.3z"/>
		<path class="st0" d="M381.5,300.3h-19.7c-0.3,0-0.5,0-0.7,0s-0.4,0.1-0.6,0.1c-0.2,0-0.3,0.1-0.4,0.2c-0.1,0.1-0.1,0.1-0.1,0.2
			l1.2,5.6c0,0.1,0.1,0.1,0.2,0.2s0.3,0.1,0.5,0.2c0.2,0,0.4,0.1,0.6,0.1c0.2,0,0.5,0,0.8,0h20.1c0.3,0,0.5,0,0.7,0
			c0.2,0,0.4-0.1,0.6-0.1c0.2,0,0.3-0.1,0.4-0.2s0.1-0.1,0.1-0.2l-1.6-5.6c0-0.1-0.1-0.1-0.2-0.2c-0.1-0.1-0.3-0.1-0.5-0.2
			c-0.2,0-0.4-0.1-0.6-0.1C382,300.3,381.8,300.3,381.5,300.3L381.5,300.3z"/>
		<path class="st0" d="M355.3,300.3h-19.7c-0.3,0-0.5,0-0.7,0c-0.2,0-0.4,0.1-0.6,0.1c-0.2,0-0.3,0.1-0.4,0.2
			c-0.1,0.1-0.1,0.1-0.1,0.2l0.7,5.6c0,0.1,0.1,0.1,0.2,0.2c0.1,0.1,0.2,0.1,0.4,0.2s0.4,0.1,0.6,0.1s0.5,0,0.8,0h20.1
			c0.3,0,0.5,0,0.7,0c0.2,0,0.4-0.1,0.6-0.1c0.2,0,0.3-0.1,0.4-0.2s0.1-0.1,0.1-0.2l-1.1-5.6c0-0.1-0.1-0.1-0.2-0.2
			c-0.1-0.1-0.3-0.1-0.4-0.2c-0.2,0-0.4-0.1-0.6-0.1S355.5,300.3,355.3,300.3L355.3,300.3z"/>
		<path class="st0" d="M329,300.3h-19.7c-0.3,0-0.5,0-0.7,0c-0.2,0-0.4,0.1-0.6,0.1c-0.2,0-0.3,0.1-0.4,0.2
			c-0.1,0.1-0.1,0.1-0.1,0.2l0.2,5.6c0,0.1,0.1,0.1,0.2,0.2c0.1,0.1,0.2,0.1,0.4,0.2c0.2,0,0.4,0.1,0.6,0.1c0.2,0,0.5,0,0.8,0h20.1
			c0.3,0,0.5,0,0.7,0c0.2,0,0.4-0.1,0.6-0.1s0.3-0.1,0.4-0.2c0.1-0.1,0.1-0.1,0.1-0.2l-0.6-5.6c0-0.1-0.1-0.1-0.2-0.2
			c-0.1-0.1-0.2-0.1-0.4-0.2c-0.2,0-0.4-0.1-0.6-0.1C329.5,300.3,329.2,300.3,329,300.3L329,300.3z"/>
		<path class="st0" d="M302.8,300.3L302.8,300.3C302.8,300.3,302.8,300.3,302.8,300.3C302.8,300.3,302.8,300.3,302.8,300.3
			C302.7,300.3,302.7,300.3,302.8,300.3H283c-0.3,0-0.5,0-0.7,0c-0.2,0-0.4,0.1-0.6,0.1s-0.3,0.1-0.4,0.2c-0.1,0.1-0.2,0.1-0.2,0.2
			l-0.3,5.6c0,0.1,0,0.1,0.1,0.2c0.1,0.1,0.2,0.1,0.4,0.2c0.2,0,0.4,0.1,0.6,0.1s0.5,0,0.7,0h20.1c0.3,0,0.5,0,0.8,0
			c0.2,0,0.4-0.1,0.6-0.1c0.2,0,0.3-0.1,0.4-0.2s0.1-0.1,0.1-0.2l-0.1-5.6c0-0.1,0-0.1-0.1-0.2c-0.1-0.1-0.2-0.1-0.4-0.2
			c-0.2,0-0.4-0.1-0.6-0.1C303.3,300.3,303,300.3,302.8,300.3L302.8,300.3z"/>
		<path class="st0" d="M276.5,300.3h-19.7c-0.3,0-0.5,0-0.7,0c-0.2,0-0.4,0.1-0.6,0.1c-0.2,0-0.3,0.1-0.4,0.2
			c-0.1,0.1-0.2,0.1-0.2,0.2l-0.8,5.6c0,0.1,0,0.1,0.1,0.2s0.2,0.1,0.4,0.2s0.4,0.1,0.6,0.1c0.2,0,0.5,0,0.7,0H276
			c0.3,0,0.5,0,0.8,0c0.2,0,0.4-0.1,0.6-0.1s0.3-0.1,0.4-0.2s0.2-0.1,0.2-0.2l0.4-5.6c0-0.1,0-0.1-0.1-0.2c-0.1-0.1-0.2-0.1-0.4-0.2
			c-0.2,0-0.4-0.1-0.6-0.1C277,300.3,276.7,300.3,276.5,300.3L276.5,300.3z"/>
		<path class="st0" d="M250.2,300.3h-19.7c-0.3,0-0.5,0-0.7,0c-0.2,0-0.4,0.1-0.6,0.1c-0.2,0-0.3,0.1-0.4,0.2
			c-0.1,0.1-0.2,0.1-0.2,0.2l-1.3,5.6c0,0.1,0,0.1,0.1,0.2s0.2,0.1,0.4,0.2c0.2,0,0.4,0.1,0.6,0.1s0.5,0,0.7,0h20.1
			c0.3,0,0.5,0,0.8,0c0.2,0,0.4-0.1,0.6-0.1c0.2,0,0.3-0.1,0.4-0.2s0.2-0.1,0.2-0.2l0.9-5.6c0-0.1,0-0.1-0.1-0.2
			c-0.1-0.1-0.2-0.1-0.4-0.2c-0.2,0-0.4-0.1-0.6-0.1C250.7,300.4,250.5,300.3,250.2,300.3L250.2,300.3z"/>
		<path class="st0" d="M223.9,300.3h-19.7c-0.3,0-0.5,0-0.7,0c-0.2,0-0.4,0.1-0.6,0.1c-0.2,0-0.3,0.1-0.5,0.2
			c-0.1,0.1-0.2,0.1-0.2,0.2l-1.8,5.6c0,0.1,0,0.1,0.1,0.2s0.2,0.1,0.4,0.2c0.2,0,0.4,0.1,0.6,0.1s0.5,0,0.7,0h20.1
			c0.3,0,0.5,0,0.8,0c0.2,0,0.4-0.1,0.6-0.1s0.3-0.1,0.4-0.2s0.2-0.1,0.2-0.2l1.4-5.6c0-0.1,0-0.1-0.1-0.2c-0.1-0.1-0.2-0.1-0.4-0.2
			c-0.2,0-0.4-0.1-0.6-0.1C224.4,300.4,224.2,300.3,223.9,300.3L223.9,300.3z"/>
		<path class="st0" d="M197.7,300.3H178c-0.3,0-0.5,0-0.8,0s-0.4,0.1-0.6,0.1s-0.4,0.1-0.5,0.2c-0.1,0.1-0.2,0.1-0.2,0.2l-2.3,5.6
			c0,0.1,0,0.1,0.1,0.2c0.1,0.1,0.2,0.1,0.3,0.2c0.1,0,0.3,0.1,0.6,0.1s0.5,0,0.7,0h20.1c0.3,0,0.5,0,0.8,0c0.2,0,0.5-0.1,0.6-0.1
			c0.2,0,0.4-0.1,0.5-0.2s0.2-0.1,0.2-0.2l1.9-5.6c0-0.1,0-0.1-0.1-0.2c-0.1-0.1-0.2-0.1-0.3-0.2c-0.1,0-0.3-0.1-0.6-0.1
			C198.2,300.4,197.9,300.3,197.7,300.3L197.7,300.3z"/>
		<path class="st0" d="M171.4,300.3h-19.7c-0.3,0-0.5,0-0.8,0c-0.2,0-0.5,0.1-0.6,0.1c-0.2,0-0.4,0.1-0.5,0.2s-0.2,0.1-0.2,0.2
			l-2.9,5.6c0,0.1,0,0.1,0.1,0.2c0.1,0.1,0.2,0.1,0.3,0.2c0.1,0,0.3,0.1,0.6,0.1s0.5,0,0.7,0h20.1c0.3,0,0.5,0,0.8,0
			c0.2,0,0.5-0.1,0.7-0.1c0.2,0,0.4-0.1,0.5-0.2s0.2-0.1,0.2-0.2l2.4-5.6c0-0.1,0-0.1-0.1-0.2c-0.1-0.1-0.2-0.1-0.3-0.2
			c-0.1,0-0.3-0.1-0.6-0.1C171.9,300.4,171.7,300.3,171.4,300.3L171.4,300.3z"/>
		<path class="st0" d="M144.7,300.4h-32.2c-0.3,0-0.5,0-0.8,0c-0.2,0-0.5,0.1-0.7,0.1s-0.4,0.1-0.5,0.2c-0.1,0.1-0.2,0.1-0.3,0.2
			l-3.6,5.6c-0.1,0.1,0,0.1,0,0.2s0.2,0.1,0.3,0.2c0.1,0,0.3,0.1,0.5,0.1s0.4,0,0.7,0l32.9,0c0.3,0,0.5,0,0.8,0
			c0.2,0,0.5-0.1,0.7-0.1s0.4-0.1,0.5-0.2s0.2-0.1,0.3-0.2l2.9-5.6c0-0.1,0-0.1,0-0.2c-0.1-0.1-0.2-0.1-0.3-0.2
			c-0.1,0-0.3-0.1-0.5-0.1C145.1,300.4,144.9,300.4,144.7,300.4L144.7,300.4z"/>
		<path class="st0" d="M443.1,307.8C443.1,307.8,443.1,307.8,443.1,307.8C443.1,307.8,443.1,307.8,443.1,307.8
			C443.1,307.8,443.1,307.8,443.1,307.8C443.1,307.8,443.1,307.8,443.1,307.8h-20.2c-0.3,0-0.5,0-0.7,0c-0.2,0-0.4,0.1-0.6,0.1
			c-0.1,0-0.3,0.1-0.3,0.2s-0.1,0.1-0.1,0.2l2.4,5.9c0,0.1,0.1,0.2,0.2,0.2s0.3,0.1,0.5,0.2c0.2,0,0.4,0.1,0.7,0.1s0.5,0,0.8,0h20.6
			c0.3,0,0.5,0,0.7,0s0.4-0.1,0.6-0.1c0.1,0,0.3-0.1,0.3-0.2c0.1-0.1,0.1-0.1,0-0.2l-2.9-5.9c0-0.1-0.1-0.1-0.2-0.2
			c-0.1-0.1-0.3-0.1-0.5-0.2c-0.2,0-0.4-0.1-0.7-0.1C443.6,307.8,443.4,307.8,443.1,307.8L443.1,307.8z"/>
		<path class="st0" d="M491.1,307.8l-40.8,0c-0.3,0-0.5,0-0.7,0c-0.2,0-0.4,0.1-0.5,0.1s-0.3,0.1-0.3,0.2c-0.1,0.1-0.1,0.1,0,0.2
			l2.9,5.9c0,0.1,0.1,0.2,0.3,0.2c0.1,0.1,0.3,0.1,0.5,0.2c0.2,0,0.4,0.1,0.7,0.1s0.5,0,0.8,0l41.7,0c0.3,0,0.5,0,0.7,0
			s0.4-0.1,0.5-0.1c0.1,0,0.2-0.1,0.3-0.2s0.1-0.1,0-0.2l-3.8-5.9c0-0.1-0.1-0.1-0.3-0.2s-0.3-0.1-0.5-0.2s-0.4-0.1-0.7-0.1
			C491.6,307.8,491.4,307.8,491.1,307.8L491.1,307.8z"/>
		<path class="st0" d="M416.1,307.8H396c-0.3,0-0.5,0-0.7,0c-0.2,0-0.4,0.1-0.6,0.1s-0.3,0.1-0.4,0.2c-0.1,0.1-0.1,0.1-0.1,0.2
			l1.9,5.9c0,0.1,0.1,0.2,0.2,0.2c0.1,0.1,0.3,0.1,0.5,0.2c0.2,0,0.4,0.1,0.7,0.1s0.5,0,0.8,0h20.6c0.3,0,0.5,0,0.8,0
			c0.2,0,0.4-0.1,0.6-0.1c0.2,0,0.3-0.1,0.4-0.2s0.1-0.1,0.1-0.2l-2.4-5.9c0-0.1-0.1-0.1-0.2-0.2c-0.1-0.1-0.3-0.1-0.5-0.2
			c-0.2,0-0.4-0.1-0.7-0.1C416.6,307.8,416.4,307.8,416.1,307.8L416.1,307.8z"/>
		<path class="st0" d="M389.2,307.8H369c-0.3,0-0.5,0-0.7,0c-0.2,0-0.4,0.1-0.6,0.1c-0.2,0-0.3,0.1-0.4,0.2s-0.1,0.1-0.1,0.2
			l1.4,5.9c0,0.1,0.1,0.2,0.2,0.2s0.3,0.1,0.5,0.2c0.2,0,0.4,0.1,0.7,0.1c0.2,0,0.5,0,0.8,0h20.6c0.3,0,0.5,0,0.8,0
			c0.2,0,0.4-0.1,0.6-0.1c0.2,0,0.3-0.1,0.4-0.2c0.1-0.1,0.1-0.1,0.1-0.2l-1.8-5.9c0-0.1-0.1-0.1-0.2-0.2s-0.3-0.1-0.5-0.2
			c-0.2,0-0.4-0.1-0.6-0.1C389.7,307.8,389.5,307.8,389.2,307.8L389.2,307.8z"/>
		<path class="st0" d="M362.3,307.8h-20.2c-0.3,0-0.5,0-0.7,0c-0.2,0-0.4,0.1-0.6,0.1c-0.2,0-0.3,0.1-0.4,0.2
			c-0.1,0.1-0.1,0.1-0.1,0.2l0.8,5.9c0,0.1,0.1,0.2,0.2,0.2c0.1,0.1,0.3,0.1,0.5,0.2c0.2,0,0.4,0.1,0.6,0.1c0.2,0,0.5,0,0.8,0h20.6
			c0.3,0,0.5,0,0.8,0s0.4-0.1,0.6-0.1c0.2,0,0.3-0.1,0.4-0.2s0.1-0.1,0.1-0.2l-1.3-5.9c0-0.1-0.1-0.1-0.2-0.2
			c-0.1-0.1-0.3-0.1-0.5-0.2c-0.2,0-0.4-0.1-0.6-0.1C362.8,307.8,362.5,307.8,362.3,307.8L362.3,307.8z"/>
		<path class="st0" d="M335.3,307.8h-20.2c-0.3,0-0.5,0-0.8,0c-0.2,0-0.4,0.1-0.6,0.1c-0.2,0-0.3,0.1-0.4,0.2
			c-0.1,0.1-0.1,0.1-0.1,0.2l0.3,5.9c0,0.1,0.1,0.2,0.2,0.2c0.1,0.1,0.2,0.1,0.4,0.2c0.2,0,0.4,0.1,0.6,0.1s0.5,0,0.8,0h20.6
			c0.3,0,0.5,0,0.8,0s0.4-0.1,0.6-0.1c0.2,0,0.3-0.1,0.4-0.2s0.1-0.1,0.1-0.2l-0.8-5.9c0-0.1-0.1-0.1-0.2-0.2s-0.2-0.1-0.4-0.2
			s-0.4-0.1-0.6-0.1C335.9,307.8,335.6,307.8,335.3,307.8L335.3,307.8z"/>
		<path class="st0" d="M308.4,307.8h-20.2c-0.3,0-0.5,0-0.8,0c-0.2,0-0.4,0.1-0.6,0.1c-0.2,0-0.3,0.1-0.4,0.2s-0.2,0.1-0.2,0.2
			l-0.2,5.9c0,0.1,0,0.2,0.1,0.2c0.1,0.1,0.2,0.1,0.4,0.2c0.2,0,0.4,0.1,0.6,0.1c0.2,0,0.5,0,0.8,0h20.6c0.3,0,0.5,0,0.8,0
			s0.5-0.1,0.6-0.1c0.2,0,0.3-0.1,0.4-0.2s0.1-0.1,0.1-0.2l-0.2-5.9c0-0.1-0.1-0.1-0.2-0.2s-0.2-0.1-0.4-0.2c-0.2,0-0.4-0.1-0.6-0.1
			C308.9,307.8,308.7,307.8,308.4,307.8L308.4,307.8z"/>
		<path class="st0" d="M281.5,307.8h-20.2c-0.3,0-0.5,0-0.8,0c-0.2,0-0.5,0.1-0.6,0.1s-0.3,0.1-0.4,0.2c-0.1,0.1-0.2,0.1-0.2,0.2
			l-0.8,5.9c0,0.1,0,0.2,0.1,0.2c0.1,0.1,0.2,0.1,0.4,0.2c0.2,0,0.4,0.1,0.6,0.1c0.2,0,0.5,0,0.8,0h20.6c0.3,0,0.5,0,0.8,0
			s0.5-0.1,0.6-0.1c0.2,0,0.3-0.1,0.4-0.2s0.2-0.1,0.2-0.2l0.3-5.9c0-0.1,0-0.1-0.1-0.2c-0.1-0.1-0.2-0.1-0.4-0.2
			c-0.2,0-0.4-0.1-0.6-0.1C282,307.8,281.7,307.8,281.5,307.8L281.5,307.8z"/>
		<path class="st0" d="M254.5,307.8h-20.2c-0.3,0-0.5,0-0.8,0c-0.2,0-0.4,0.1-0.6,0.1c-0.2,0-0.3,0.1-0.4,0.2s-0.2,0.1-0.2,0.2
			l-1.3,5.9c0,0.1,0,0.2,0.1,0.2s0.2,0.1,0.4,0.2c0.2,0,0.4,0.1,0.6,0.1c0.2,0,0.5,0,0.8,0h20.6c0.3,0,0.5,0,0.8,0s0.5-0.1,0.6-0.1
			c0.2,0,0.3-0.1,0.4-0.2s0.2-0.1,0.2-0.2l0.8-5.9c0-0.1,0-0.1-0.1-0.2s-0.2-0.1-0.4-0.2s-0.4-0.1-0.6-0.1
			C255,307.8,254.8,307.8,254.5,307.8L254.5,307.8z"/>
		<path class="st0" d="M227.6,307.8h-20.2c-0.3,0-0.5,0-0.8,0c-0.2,0-0.5,0.1-0.6,0.1s-0.4,0.1-0.5,0.2s-0.2,0.1-0.2,0.2l-1.8,5.9
			c0,0.1,0,0.2,0.1,0.2s0.2,0.1,0.4,0.2c0.2,0,0.4,0.1,0.6,0.1s0.5,0,0.8,0h20.6c0.3,0,0.5,0,0.8,0c0.2,0,0.5-0.1,0.6-0.1
			c0.2,0,0.4-0.1,0.5-0.2c0.1-0.1,0.2-0.1,0.2-0.2l1.4-5.9c0-0.1,0-0.1-0.1-0.2s-0.2-0.1-0.4-0.2c-0.2,0-0.4-0.1-0.6-0.1
			C228.1,307.9,227.9,307.8,227.6,307.8L227.6,307.8z"/>
		<path class="st0" d="M200.6,307.8h-20.2c-0.3,0-0.5,0-0.8,0c-0.2,0-0.5,0.1-0.7,0.1c-0.2,0-0.4,0.1-0.5,0.2s-0.2,0.1-0.2,0.2
			l-2.3,5.9c0,0.1,0,0.2,0.1,0.2c0.1,0.1,0.2,0.1,0.4,0.2c0.2,0,0.4,0.1,0.6,0.1s0.5,0,0.8,0h20.6c0.3,0,0.5,0,0.8,0
			c0.2,0,0.5-0.1,0.7-0.1c0.2,0,0.4-0.1,0.5-0.2s0.2-0.1,0.2-0.2l1.9-5.9c0-0.1,0-0.1-0.1-0.2c-0.1-0.1-0.2-0.1-0.4-0.2
			s-0.4-0.1-0.6-0.1C201.2,307.9,200.9,307.8,200.6,307.8L200.6,307.8z"/>
		<path class="st0" d="M173.7,307.8h-20.2c-0.3,0-0.5,0-0.8,0c-0.2,0-0.5,0.1-0.7,0.1s-0.4,0.1-0.5,0.2s-0.2,0.1-0.3,0.2l-2.9,5.9
			c0,0.1,0,0.2,0,0.2c0.1,0.1,0.2,0.1,0.3,0.2c0.1,0,0.4,0.1,0.6,0.1s0.5,0,0.8,0h20.6c0.3,0,0.5,0,0.8,0c0.2,0,0.5-0.1,0.7-0.1
			c0.2,0,0.4-0.1,0.5-0.2s0.2-0.1,0.2-0.2l2.4-5.9c0-0.1,0-0.1-0.1-0.2c-0.1-0.1-0.2-0.1-0.3-0.2c-0.1,0-0.3-0.1-0.6-0.1
			C174.2,307.9,174,307.8,173.7,307.8L173.7,307.8z"/>
		<path class="st0" d="M496.1,315.7l-54.7,0c-0.3,0-0.5,0-0.8,0s-0.4,0.1-0.6,0.1c-0.2,0-0.3,0.1-0.3,0.2s-0.1,0.1,0,0.2l2.8,6.2
			c0,0.1,0.1,0.2,0.3,0.2c0.1,0.1,0.3,0.1,0.5,0.2s0.5,0.1,0.7,0.1c0.3,0,0.5,0,0.8,0l56,0c0.3,0,0.5,0,0.8,0c0.2,0,0.4-0.1,0.6-0.1
			c0.1-0.1,0.2-0.1,0.3-0.2c0.1-0.1,0.1-0.1,0-0.2l-4-6.2c0-0.1-0.2-0.2-0.3-0.2c-0.1-0.1-0.3-0.1-0.5-0.2c-0.2,0-0.5-0.1-0.7-0.1
			C496.7,315.7,496.4,315.7,496.1,315.7L496.1,315.7z"/>
		<path class="st0" d="M434.5,315.7h-20.7c-0.3,0-0.5,0-0.8,0s-0.4,0.1-0.6,0.1c-0.2,0-0.3,0.1-0.4,0.2s-0.1,0.1-0.1,0.2l2.3,6.2
			c0,0.1,0.1,0.2,0.2,0.2c0.1,0.1,0.3,0.1,0.5,0.2s0.4,0.1,0.7,0.1s0.5,0,0.8,0h21.2c0.3,0,0.5,0,0.8,0c0.2,0,0.4-0.1,0.6-0.1
			c0.2-0.1,0.3-0.1,0.4-0.2c0.1-0.1,0.1-0.2,0-0.2l-2.8-6.2c0-0.1-0.1-0.2-0.3-0.2s-0.3-0.1-0.5-0.2s-0.4-0.1-0.7-0.1
			C435.1,315.7,434.8,315.7,434.5,315.7L434.5,315.7z"/>
		<path class="st0" d="M406.9,315.7L406.9,315.7C406.9,315.7,406.9,315.7,406.9,315.7C406.9,315.7,406.9,315.7,406.9,315.7
			C406.9,315.7,406.9,315.7,406.9,315.7h-20.7c-0.3,0-0.5,0-0.8,0s-0.4,0.1-0.6,0.1c-0.2,0-0.3,0.1-0.4,0.2s-0.1,0.1-0.1,0.2
			l1.7,6.2c0,0.1,0.1,0.2,0.2,0.2c0.1,0.1,0.3,0.1,0.5,0.2c0.2,0.1,0.4,0.1,0.7,0.1s0.5,0,0.8,0h21.2c0.3,0,0.5,0,0.8,0
			c0.2,0,0.4-0.1,0.6-0.1c0.2-0.1,0.3-0.1,0.4-0.2c0.1-0.1,0.1-0.1,0.1-0.2l-2.2-6.2c0-0.1-0.1-0.2-0.2-0.2
			c-0.1-0.1-0.3-0.1-0.5-0.2c-0.2,0-0.4-0.1-0.7-0.1C407.5,315.7,407.2,315.7,406.9,315.7L406.9,315.7z"/>
		<path class="st0" d="M379.2,315.7h-20.7c-0.3,0-0.5,0-0.8,0s-0.4,0.1-0.6,0.1c-0.2,0-0.3,0.1-0.4,0.2c-0.1,0.1-0.1,0.1-0.1,0.2
			l1.2,6.2c0,0.1,0.1,0.2,0.2,0.2c0.1,0.1,0.3,0.1,0.5,0.2s0.4,0.1,0.7,0.1s0.5,0,0.8,0h21.2c0.3,0,0.5,0,0.8,0
			c0.2,0,0.4-0.1,0.6-0.1c0.2-0.1,0.3-0.1,0.4-0.2c0.1-0.1,0.1-0.1,0.1-0.2l-1.7-6.2c0-0.1-0.1-0.2-0.2-0.2s-0.3-0.1-0.5-0.2
			c-0.2,0-0.4-0.1-0.7-0.1S379.5,315.7,379.2,315.7L379.2,315.7z"/>
		<path class="st0" d="M351.6,315.7h-20.7c-0.3,0-0.5,0-0.8,0c-0.2,0-0.4,0.1-0.6,0.1c-0.2,0-0.3,0.1-0.4,0.2s-0.1,0.1-0.1,0.2
			l0.6,6.2c0,0.1,0.1,0.2,0.2,0.2c0.1,0.1,0.3,0.1,0.5,0.2s0.4,0.1,0.7,0.1s0.5,0,0.8,0h21.2c0.3,0,0.5,0,0.8,0s0.4-0.1,0.6-0.1
			c0.2-0.1,0.3-0.1,0.4-0.2c0.1-0.1,0.1-0.1,0.1-0.2l-1.1-6.2c0-0.1-0.1-0.2-0.2-0.2c-0.1-0.1-0.3-0.1-0.5-0.2
			c-0.2,0-0.4-0.1-0.6-0.1S351.9,315.7,351.6,315.7L351.6,315.7z"/>
		<path class="st0" d="M324,315.7h-20.7c-0.3,0-0.5,0-0.8,0s-0.5,0.1-0.6,0.1c-0.2,0-0.3,0.1-0.4,0.2s-0.1,0.1-0.1,0.2l0.1,6.2
			c0,0.1,0.1,0.2,0.2,0.2c0.1,0.1,0.2,0.1,0.4,0.2s0.4,0.1,0.6,0.1c0.2,0,0.5,0,0.8,0h21.2c0.3,0,0.5,0,0.8,0c0.2,0,0.5-0.1,0.6-0.1
			c0.2-0.1,0.3-0.1,0.4-0.2c0.1-0.1,0.1-0.2,0.1-0.2l-0.6-6.2c0-0.1-0.1-0.2-0.2-0.2s-0.3-0.1-0.4-0.2c-0.2,0-0.4-0.1-0.6-0.1
			C324.5,315.7,324.2,315.7,324,315.7L324,315.7z"/>
		<path class="st0" d="M296.3,315.7h-20.7c-0.3,0-0.5,0-0.8,0s-0.5,0.1-0.6,0.1c-0.2,0-0.3,0.1-0.4,0.2c-0.1,0.1-0.2,0.1-0.2,0.2
			l-0.5,6.2c0,0.1,0,0.2,0.1,0.2c0.1,0.1,0.2,0.1,0.4,0.2c0.2,0.1,0.4,0.1,0.6,0.1s0.5,0,0.8,0h21.2c0.3,0,0.5,0,0.8,0
			c0.2,0,0.5-0.1,0.6-0.1c0.2-0.1,0.3-0.1,0.4-0.2c0.1-0.1,0.2-0.2,0.2-0.2v-6.2c0-0.1,0-0.2-0.1-0.2s-0.2-0.1-0.4-0.2
			c-0.2,0-0.4-0.1-0.6-0.1C296.9,315.7,296.6,315.7,296.3,315.7L296.3,315.7z"/>
		<path class="st0" d="M268.7,315.7H248c-0.3,0-0.5,0-0.8,0c-0.2,0-0.5,0.1-0.6,0.1c-0.2,0-0.3,0.1-0.4,0.2s-0.2,0.1-0.2,0.2
			l-1.1,6.2c0,0.1,0,0.2,0.1,0.2s0.2,0.1,0.4,0.2c0.2,0.1,0.4,0.1,0.6,0.1c0.2,0,0.5,0,0.8,0H268c0.3,0,0.5,0,0.8,0s0.5-0.1,0.6-0.1
			c0.2-0.1,0.3-0.1,0.5-0.2c0.1-0.1,0.2-0.1,0.2-0.2l0.5-6.2c0-0.1,0-0.2-0.1-0.2c-0.1-0.1-0.2-0.1-0.4-0.2c-0.2,0-0.4-0.1-0.6-0.1
			C269.2,315.7,269,315.7,268.7,315.7L268.7,315.7z"/>
		<path class="st0" d="M241.1,315.7h-20.7c-0.3,0-0.5,0-0.8,0s-0.5,0.1-0.7,0.1c-0.2,0-0.4,0.1-0.5,0.2s-0.2,0.1-0.2,0.2l-1.6,6.2
			c0,0.1,0,0.2,0.1,0.2c0.1,0.1,0.2,0.1,0.4,0.2s0.4,0.1,0.6,0.1s0.5,0,0.8,0h21.2c0.3,0,0.6,0,0.8,0s0.5-0.1,0.7-0.1
			c0.2-0.1,0.4-0.1,0.5-0.2c0.1-0.1,0.2-0.1,0.2-0.2l1.1-6.2c0-0.1,0-0.2-0.1-0.2c-0.1-0.1-0.2-0.1-0.4-0.2c-0.2,0-0.4-0.1-0.6-0.1
			C241.6,315.7,241.3,315.7,241.1,315.7L241.1,315.7z"/>
		<path class="st0" d="M213.4,315.7h-20.7c-0.3,0-0.5,0-0.8,0c-0.2,0-0.5,0.1-0.7,0.1c-0.2,0-0.4,0.1-0.5,0.2
			c-0.1,0.1-0.2,0.1-0.2,0.2l-2.2,6.2c0,0.1,0,0.2,0.1,0.2c0.1,0.1,0.2,0.1,0.4,0.2s0.4,0.1,0.6,0.1s0.5,0,0.8,0h21.2
			c0.3,0,0.6,0,0.8,0s0.5-0.1,0.7-0.1c0.2-0.1,0.4-0.1,0.5-0.2c0.1-0.1,0.2-0.1,0.2-0.2l1.7-6.2c0-0.1,0-0.2-0.1-0.2
			s-0.2-0.1-0.4-0.2c-0.2,0-0.4-0.1-0.6-0.1S213.7,315.7,213.4,315.7L213.4,315.7z"/>
		<path class="st0" d="M185.8,315.7h-20.7c-0.3,0-0.5,0-0.8,0s-0.5,0.1-0.7,0.1c-0.2,0-0.4,0.1-0.5,0.2s-0.2,0.1-0.3,0.2l-2.7,6.2
			c0,0.1,0,0.2,0.1,0.2c0.1,0.1,0.2,0.1,0.3,0.2c0.2,0.1,0.4,0.1,0.6,0.1c0.2,0,0.5,0,0.8,0c0,0,0,0,0,0c0,0,0,0,0,0s0,0,0,0
			c0,0,0,0,0,0h21.2c0.3,0,0.6,0,0.8,0s0.5-0.1,0.7-0.1c0.2-0.1,0.4-0.1,0.5-0.2c0.1-0.1,0.2-0.2,0.2-0.2l2.2-6.2
			c0-0.1,0-0.2-0.1-0.2s-0.2-0.1-0.4-0.2c-0.2,0-0.4-0.1-0.6-0.1C186.3,315.8,186,315.7,185.8,315.7L185.8,315.7z"/>
		<path class="st0" d="M147.2,307.9h-39.4c-0.3,0-0.5,0-0.8,0c-0.2,0-0.5,0.1-0.7,0.1s-0.4,0.1-0.5,0.2s-0.2,0.1-0.3,0.2l-3.8,5.9
			c-0.1,0.1-0.1,0.2,0,0.2c0.1,0.1,0.2,0.1,0.3,0.2c0.1,0,0.3,0.1,0.5,0.1c0.2,0,0.5,0,0.7,0l40.4,0c0.3,0,0.5,0,0.8,0
			s0.5-0.1,0.7-0.1c0.2,0,0.4-0.1,0.5-0.2c0.1-0.1,0.2-0.1,0.3-0.2l2.9-5.9c0-0.1,0-0.1,0-0.2s-0.2-0.1-0.3-0.2
			c-0.1,0-0.3-0.1-0.6-0.1C147.7,307.9,147.5,307.9,147.2,307.9L147.2,307.9z"/>
		<path class="st0" d="M157,315.7l-54.2,0c-0.3,0-0.5,0-0.8,0c-0.2,0-0.5,0.1-0.7,0.1c-0.2,0-0.4,0.1-0.5,0.2s-0.2,0.1-0.3,0.2
			l-4,6.2c-0.1,0.1-0.1,0.2,0,0.2c0.1,0.1,0.2,0.1,0.3,0.2c0.2,0.1,0.3,0.1,0.6,0.1c0.2,0,0.5,0,0.8,0l55.5,0c0.3,0,0.6,0,0.8,0
			s0.5-0.1,0.7-0.1c0.2-0.1,0.4-0.1,0.5-0.2c0.1-0.1,0.2-0.2,0.3-0.2l2.8-6.2c0-0.1,0-0.2-0.1-0.2s-0.2-0.1-0.3-0.2
			c-0.1,0-0.4-0.1-0.6-0.1C157.5,315.8,157.3,315.7,157,315.7L157,315.7z"/>
		<path class="st0" d="M118.7,324.1H97.5c-0.3,0-0.6,0-0.8,0s-0.5,0.1-0.7,0.1c-0.2,0.1-0.4,0.1-0.6,0.2c-0.2,0.1-0.3,0.2-0.3,0.2
			l-4.2,6.6c-0.1,0.1-0.1,0.2,0,0.2c0.1,0.1,0.2,0.1,0.3,0.2c0.2,0.1,0.3,0.1,0.6,0.1c0.2,0,0.5,0,0.8,0h21.7c0.3,0,0.6,0,0.8,0
			s0.5-0.1,0.7-0.1s0.4-0.1,0.6-0.2c0.2-0.1,0.2-0.2,0.3-0.2l3.7-6.6c0.1-0.1,0-0.2,0-0.2c-0.1-0.1-0.2-0.1-0.3-0.2
			c-0.2-0.1-0.3-0.1-0.6-0.1C119.2,324.1,119,324.1,118.7,324.1L118.7,324.1z"/>
		<path class="st0" d="M147.1,324h-21.2c-0.3,0-0.6,0-0.8,0s-0.5,0.1-0.7,0.1c-0.2,0.1-0.4,0.1-0.5,0.2c-0.1,0.1-0.2,0.2-0.3,0.2
			l-3.6,6.6c-0.1,0.1,0,0.2,0,0.2c0.1,0.1,0.2,0.1,0.3,0.2c0.2,0.1,0.3,0.1,0.6,0.1c0.2,0,0.5,0,0.8,0h21.7c0.3,0,0.6,0,0.8,0
			s0.5-0.1,0.7-0.1c0.2-0.1,0.4-0.1,0.5-0.2s0.2-0.2,0.3-0.2l3.1-6.6c0-0.1,0-0.2,0-0.2c-0.1-0.1-0.2-0.1-0.3-0.2s-0.4-0.1-0.6-0.1
			C147.6,324.1,147.4,324,147.1,324L147.1,324z"/>
		<path class="st0" d="M175.3,324h-21.2c-0.3,0-0.6,0-0.8,0c-0.3,0-0.5,0.1-0.7,0.1c-0.2,0.1-0.4,0.1-0.5,0.2
			c-0.1,0.1-0.2,0.2-0.3,0.2l-3,6.6c0,0.1,0,0.2,0.1,0.2c0.1,0.1,0.2,0.1,0.4,0.2s0.4,0.1,0.6,0.1c0.2,0,0.5,0,0.8,0h21.7
			c0.3,0,0.6,0,0.8,0s0.5-0.1,0.7-0.1c0.2-0.1,0.4-0.1,0.5-0.2s0.2-0.2,0.3-0.2l2.5-6.6c0-0.1,0-0.2-0.1-0.2
			c-0.1-0.1-0.2-0.1-0.4-0.2s-0.4-0.1-0.6-0.1S175.6,324,175.3,324L175.3,324z"/>
		<path class="st0" d="M210,324h-27.6c-0.3,0-0.6,0-0.8,0c-0.2,0-0.5,0.1-0.7,0.1c-0.2,0.1-0.4,0.1-0.5,0.2
			c-0.1,0.1-0.2,0.2-0.2,0.2l-2.4,6.6c0,0.1,0,0.2,0.1,0.2c0.1,0.1,0.2,0.1,0.4,0.2s0.4,0.1,0.6,0.1c0.2,0,0.5,0,0.8,0h28.3
			c0.3,0,0.6,0,0.8,0c0.3,0,0.5-0.1,0.7-0.1c0.2-0.1,0.4-0.1,0.5-0.2s0.2-0.2,0.2-0.2l1.8-6.6c0-0.1,0-0.2-0.1-0.2
			c-0.1-0.1-0.2-0.1-0.4-0.2s-0.4-0.1-0.6-0.1S210.2,324,210,324L210,324z"/>
		<path class="st0" d="M387.8,324h-27.6c-0.3,0-0.5,0-0.8,0s-0.5,0.1-0.6,0.1c-0.2,0.1-0.3,0.1-0.4,0.2c-0.1,0.1-0.1,0.2-0.1,0.2
			l1.2,6.6c0,0.1,0.1,0.2,0.2,0.2c0.1,0.1,0.3,0.1,0.5,0.2c0.2,0.1,0.4,0.1,0.7,0.1c0.2,0,0.5,0,0.8,0H390c0.3,0,0.5,0,0.8,0
			c0.2,0,0.5-0.1,0.6-0.1c0.2-0.1,0.3-0.1,0.4-0.2c0.1-0.1,0.1-0.2,0.1-0.2l-1.9-6.6c0-0.1-0.1-0.2-0.2-0.2
			c-0.1-0.1-0.3-0.1-0.5-0.2c-0.2-0.1-0.4-0.1-0.7-0.1C388.3,324,388,324,387.8,324L387.8,324z"/>
		<path class="st0" d="M416.6,324h-21.3c-0.3,0-0.5,0-0.8,0c-0.2,0-0.4,0.1-0.6,0.1c-0.2,0.1-0.3,0.1-0.4,0.2
			c-0.1,0.1-0.1,0.2-0.1,0.2l2,6.6c0,0.1,0.1,0.2,0.2,0.2c0.1,0.1,0.3,0.1,0.5,0.2c0.2,0.1,0.5,0.1,0.7,0.1c0.3,0,0.5,0,0.8,0h21.8
			c0.3,0,0.5,0,0.8,0c0.2,0,0.4-0.1,0.6-0.1c0.2-0.1,0.3-0.1,0.4-0.2c0.1-0.1,0.1-0.2,0.1-0.2l-2.5-6.6c0-0.1-0.1-0.2-0.2-0.2
			c-0.1-0.1-0.3-0.1-0.5-0.2c-0.2-0.1-0.4-0.1-0.7-0.1C417.2,324,416.9,324,416.6,324L416.6,324z"/>
		<path class="st0" d="M353,324l-136.1,0c-0.3,0-0.6,0-0.8,0s-0.5,0.1-0.7,0.1c-0.2,0.1-0.4,0.1-0.5,0.2c-0.1,0.1-0.2,0.2-0.2,0.2
			l-1.7,6.6c0,0.1,0,0.2,0.1,0.2c0.1,0.1,0.2,0.1,0.4,0.2s0.4,0.1,0.6,0.1c0.2,0,0.5,0,0.8,0l139.5,0c0.3,0,0.6,0,0.8,0
			s0.5-0.1,0.6-0.1c0.2-0.1,0.3-0.1,0.4-0.2s0.1-0.2,0.1-0.2l-1.2-6.6c0-0.1-0.1-0.2-0.2-0.2c-0.1-0.1-0.3-0.1-0.5-0.2
			s-0.4-0.1-0.7-0.1C353.6,324,353.3,324,353,324L353,324z"/>
		<path class="st0" d="M136.2,293.2H117c-0.2,0-0.5,0-0.7,0s-0.5,0.1-0.7,0.1s-0.4,0.1-0.5,0.2s-0.2,0.1-0.3,0.2l-3.4,5.3
			c-0.1,0.1,0,0.1,0,0.2c0.1,0.1,0.2,0.1,0.3,0.2c0.1,0,0.3,0.1,0.5,0.1c0.2,0,0.4,0,0.7,0h19.6c0.3,0,0.5,0,0.8,0s0.5-0.1,0.7-0.1
			c0.2,0,0.4-0.1,0.5-0.2c0.1-0.1,0.2-0.1,0.3-0.2l3-5.3c0-0.1,0-0.1,0-0.2s-0.2-0.1-0.3-0.2c-0.1,0-0.3-0.1-0.5-0.1
			C136.6,293.2,136.4,293.2,136.2,293.2L136.2,293.2z"/>
		<path class="st0" d="M464.2,288.8h-20.9c-0.2,0-0.5,0-0.7,0c-0.2,0-0.4,0.1-0.5,0.1c-0.1,0-0.2,0.1-0.3,0.2s-0.1,0.1,0,0.2
			l1.4,2.7c0,0.1,0.1,0.1,0.2,0.2s0.3,0.1,0.5,0.2c0.2,0,0.4,0.1,0.6,0.1s0.5,0,0.7,0h21.1c0.2,0,0.5,0,0.7,0c0.2,0,0.4-0.1,0.5-0.1
			c0.1,0,0.2-0.1,0.3-0.2s0.1-0.1,0-0.2l-1.6-2.7c0-0.1-0.1-0.1-0.2-0.2c-0.1-0.1-0.3-0.1-0.5-0.2c-0.2,0-0.4-0.1-0.6-0.1
			C464.7,288.8,464.4,288.8,464.2,288.8L464.2,288.8z"/>
		<path class="st0" d="M193.8,288.9h-20.9c-0.2,0-0.5,0-0.7,0c-0.2,0-0.4,0.1-0.6,0.1s-0.3,0.1-0.5,0.2c-0.1,0.1-0.2,0.1-0.2,0.2
			l-1.2,2.7c0,0.1,0,0.1,0.1,0.2s0.2,0.1,0.3,0.2s0.3,0.1,0.5,0.1c0.2,0,0.4,0,0.7,0h21.1c0.2,0,0.5,0,0.7,0s0.4-0.1,0.6-0.1
			s0.3-0.1,0.4-0.2c0.1-0.1,0.2-0.1,0.2-0.2l1-2.7c0-0.1,0-0.1-0.1-0.2s-0.2-0.1-0.3-0.2c-0.1,0-0.3-0.1-0.5-0.1
			C194.2,288.9,194,288.9,193.8,288.9L193.8,288.9z"/>
		<path class="st0" d="M166.7,288.9h-20.9c-0.2,0-0.5,0-0.7,0c-0.2,0-0.4,0.1-0.6,0.1c-0.2,0-0.4,0.1-0.5,0.2s-0.2,0.1-0.2,0.2
			l-1.5,2.7c0,0.1,0,0.1,0,0.2c0.1,0.1,0.2,0.1,0.3,0.2c0.1,0,0.3,0.1,0.5,0.1s0.4,0,0.7,0h0h0h0h0h10.5H165c0.2,0,0.5,0,0.7,0
			s0.4-0.1,0.6-0.1c0.2,0,0.4-0.1,0.5-0.2s0.2-0.1,0.2-0.2l1.2-2.7c0-0.1,0-0.1-0.1-0.2s-0.2-0.1-0.3-0.2c-0.1,0-0.3-0.1-0.5-0.1
			C167.2,288.9,167,288.9,166.7,288.9L166.7,288.9z"/>
		<path class="st0" d="M479.3,288.8h-9.9c-0.2,0-0.4,0-0.5,0s-0.3,0-0.4,0.1c-0.1,0-0.2,0.1-0.2,0.1c0,0,0,0.1,0,0.1l1.8,2.9
			c0,0.1,0.1,0.1,0.2,0.2c0.1,0,0.2,0.1,0.4,0.1c0.1,0,0.3,0.1,0.5,0.1s0.4,0,0.6,0h10.1c0.2,0,0.4,0,0.5,0s0.3,0,0.4-0.1
			c0.1,0,0.2-0.1,0.2-0.1s0-0.1,0-0.2l-1.9-2.9c0,0-0.1-0.1-0.2-0.1c-0.1,0-0.2-0.1-0.4-0.1c-0.1,0-0.3-0.1-0.5-0.1
			C479.7,288.8,479.5,288.8,479.3,288.8L479.3,288.8z"/>
		<path class="st0" d="M446.5,327.7h-22.4c-0.2,0-0.4,0-0.6,0c-0.2,0-0.4,0.1-0.5,0.1s-0.2,0.1-0.3,0.2s-0.1,0.1,0,0.2l1.2,3.1
			c0,0.1,0.1,0.1,0.2,0.2s0.2,0.1,0.4,0.2c0.2,0,0.4,0.1,0.6,0.1c0.2,0,0.4,0,0.7,0h22.6c0.2,0,0.4,0,0.6,0s0.4-0.1,0.5-0.1
			c0.1,0,0.2-0.1,0.3-0.2c0-0.1,0.1-0.1,0-0.2l-1.4-3.1c0-0.1-0.1-0.1-0.2-0.2c-0.1-0.1-0.3-0.1-0.4-0.2c-0.2,0-0.4-0.1-0.6-0.1
			C447,327.7,446.7,327.7,446.5,327.7L446.5,327.7z"/>
		<path class="st0" d="M475.6,327.7h-22.4c-0.2,0-0.4,0-0.6,0s-0.3,0.1-0.5,0.1s-0.2,0.1-0.3,0.2s-0.1,0.1,0,0.2l1.5,3.1
			c0,0.1,0.1,0.1,0.2,0.2c0.1,0.1,0.3,0.1,0.4,0.2c0.2,0,0.4,0.1,0.6,0.1c0.2,0,0.4,0,0.7,0h22.6c0.2,0,0.4,0,0.6,0s0.3-0.1,0.5-0.1
			s0.2-0.1,0.3-0.2c0-0.1,0.1-0.1,0-0.2l-1.7-3.1c0-0.1-0.1-0.1-0.2-0.2s-0.3-0.1-0.4-0.2c-0.2,0-0.4-0.1-0.6-0.1
			C476,327.7,475.8,327.7,475.6,327.7L475.6,327.7z"/>
		<path class="st0" d="M473.3,323.7h-22.1c-0.2,0-0.4,0-0.6,0s-0.3,0.1-0.5,0.1c-0.1,0-0.2,0.1-0.3,0.2s-0.1,0.1,0,0.2l1.5,3
			c0,0.1,0.1,0.1,0.2,0.2c0.1,0.1,0.3,0.1,0.4,0.2c0.2,0,0.4,0.1,0.6,0.1c0.2,0,0.4,0,0.7,0h22.4c0.2,0,0.4,0,0.6,0s0.3-0.1,0.5-0.1
			s0.2-0.1,0.3-0.2c0-0.1,0.1-0.1,0-0.2l-1.7-3c0-0.1-0.1-0.1-0.2-0.2s-0.3-0.1-0.4-0.2c-0.2,0-0.4-0.1-0.6-0.1
			C473.8,323.7,473.6,323.7,473.3,323.7L473.3,323.7z"/>
		<path class="st0" d="M504.2,327.7h-22.4c-0.2,0-0.4,0-0.6,0s-0.3,0.1-0.5,0.1s-0.2,0.1-0.3,0.2c0,0.1-0.1,0.1,0,0.2l1.8,3.1
			c0,0.1,0.1,0.1,0.2,0.2s0.3,0.1,0.5,0.2c0.2,0,0.4,0.1,0.6,0.1s0.4,0,0.7,0h22.6c0.2,0,0.4,0,0.6,0s0.3-0.1,0.5-0.1
			c0.1,0,0.2-0.1,0.2-0.2s0-0.1,0-0.2l-2-3.1c0-0.1-0.1-0.1-0.2-0.2s-0.3-0.1-0.5-0.2c-0.2,0-0.4-0.1-0.6-0.1
			C504.7,327.7,504.5,327.7,504.2,327.7L504.2,327.7z"/>
	</g>
</g>
<g id="conference">
	<path class="st24" d="M486.2,34.4v3.3H114.8v-3.3c0-7.4,5.1-13.5,13.9-13.5h343.6C481.6,20.9,486.2,25.6,486.2,34.4z"/>
	<circle class="st25" cx="155" cy="29.8" r="3.3"/>
	<circle class="st26" cx="143" cy="29.8" r="3.3"/>
	<path class="st27" d="M127.7,29.8c0-1.8,1.5-3.3,3.3-3.3s3.3,1.5,3.3,3.3s-1.5,3.3-3.3,3.3S127.7,31.7,127.7,29.8z"/>
</g>
<g id="notebook_with_pen" class="st1">
	<g class="st10">
		<g>
			<polygon class="st18" points="560,329.8 558.6,339.6 486.8,343.4 488,333.1 			"/>
		</g>
	</g>
	<g class="st10">
		<g>
			<polygon class="st18" points="488,333.1 486.8,343.4 442.7,306.6 443.5,297.5 			"/>
		</g>
	</g>
	<g class="st10">
		<polygon class="st28" points="508.3,296.2 560,329.8 488,333.1 443.5,297.5 		"/>
	</g>
	<g class="st10">
		<g>
			<g>
				<path class="st29" d="M507.7,299.2c-0.2,0-0.4-0.1-0.5-0.3c-1-3-3.3-5-5.3-4.5c-1,0.2-1.9,1-2.5,2.2c-0.1,0.2-0.4,0.4-0.7,0.2
					s-0.4-0.4-0.2-0.7c0.7-1.5,1.8-2.5,3.2-2.8c2.5-0.5,5.2,1.7,6.4,5.2c0.1,0.3,0,0.5-0.3,0.6C507.8,299.2,507.8,299.2,507.7,299.2
					z"/>
			</g>
		</g>
		<g>
			<g>
				<path class="st29" d="M498.7,299.4c-0.2,0-0.4-0.1-0.5-0.3c-1-3-3.3-5-5.3-4.5c-1,0.2-1.9,1-2.5,2.2c-0.1,0.2-0.4,0.4-0.7,0.2
					s-0.4-0.4-0.2-0.7c0.7-1.5,1.8-2.5,3.2-2.8c2.5-0.5,5.2,1.7,6.4,5.2c0.1,0.3,0,0.5-0.3,0.6C498.8,299.4,498.8,299.4,498.7,299.4
					z"/>
			</g>
		</g>
		<g>
			<g>
				<path class="st29" d="M489.7,299.6c-0.2,0-0.4-0.1-0.5-0.3c-1-3-3.3-5-5.3-4.5c-1,0.2-1.9,1-2.5,2.2c-0.1,0.2-0.4,0.4-0.7,0.2
					s-0.4-0.4-0.2-0.7c0.7-1.5,1.8-2.5,3.2-2.8c2.5-0.5,5.2,1.7,6.4,5.2c0.1,0.3,0,0.5-0.3,0.6C489.8,299.6,489.8,299.6,489.7,299.6
					z"/>
			</g>
		</g>
		<g>
			<g>
				<path class="st29" d="M480.7,299.8c-0.2,0-0.4-0.1-0.5-0.3c-1-3-3.3-5-5.3-4.5c-1,0.2-1.9,1-2.5,2.2c-0.1,0.2-0.4,0.4-0.7,0.2
					s-0.4-0.4-0.2-0.7c0.7-1.5,1.8-2.5,3.2-2.8c2.5-0.5,5.2,1.7,6.4,5.2c0.1,0.3,0,0.5-0.3,0.6C480.8,299.8,480.8,299.8,480.7,299.8
					z"/>
			</g>
		</g>
		<g>
			<g>
				<path class="st29" d="M471.7,300c-0.2,0-0.4-0.1-0.5-0.3c-1-3-3.3-5-5.3-4.5c-1,0.2-1.9,1-2.5,2.2c-0.1,0.2-0.4,0.4-0.7,0.2
					s-0.4-0.4-0.2-0.7c0.7-1.5,1.8-2.5,3.2-2.8c2.5-0.5,5.2,1.7,6.4,5.2c0.1,0.3,0,0.5-0.3,0.6C471.9,300,471.8,300,471.7,300z"/>
			</g>
		</g>
		<g>
			<g>
				<path class="st29" d="M462.7,300.2c-0.2,0-0.4-0.1-0.5-0.3c-1-3-3.3-5-5.3-4.5c-1,0.2-1.9,1-2.5,2.2c-0.1,0.2-0.4,0.4-0.7,0.2
					s-0.4-0.4-0.2-0.7c0.7-1.5,1.8-2.5,3.2-2.8c2.5-0.5,5.2,1.7,6.4,5.2c0.1,0.3,0,0.5-0.3,0.6C462.9,300.2,462.8,300.2,462.7,300.2
					z"/>
			</g>
		</g>
		<g>
			<g>
				<path class="st29" d="M453.7,300.4c-0.2,0-0.4-0.1-0.5-0.3c-1-3-3.3-5-5.3-4.5c-1,0.2-1.9,1-2.5,2.2c-0.1,0.2-0.4,0.4-0.7,0.2
					s-0.4-0.4-0.2-0.7c0.7-1.5,1.8-2.5,3.2-2.8c2.5-0.5,5.2,1.7,6.4,5.2c0.1,0.3,0,0.5-0.3,0.6C453.9,300.4,453.8,300.4,453.7,300.4
					z"/>
			</g>
		</g>
	</g>
	<g class="st10">
		<g>
			<g>
				<path class="st30" d="M469.6,306.1c-0.6,0-1.1-0.2-1.5-0.7c-0.3-0.5-1-0.7-2.1-0.7c-2.5-0.1-4.9,0.2-7.3,0.9
					c-0.3,0.1-0.5-0.1-0.6-0.4c-0.1-0.3,0.1-0.5,0.4-0.6c2.5-0.7,5-1,7.6-0.9c0.9,0,2.3,0.2,2.9,1.2c0.3,0.5,1.2,0.3,1.8-0.1
					c0.1-0.1,0.3-0.2,0.5-0.3c0.7-0.4,1.4-0.9,2.3-0.9c10.6,0.9,21.3,0,31.7-0.8l0.4,0c0.3,0,0.5,0.2,0.5,0.5c0,0.3-0.2,0.5-0.5,0.5
					l-0.4,0c-10.4,0.8-21.2,1.7-31.9,0.8c-0.5,0-1.1,0.3-1.7,0.7c-0.2,0.1-0.3,0.2-0.5,0.3C470.8,305.9,470.2,306.1,469.6,306.1z"/>
			</g>
			<g>
				<path class="st30" d="M473.6,314.7c-0.2,0-0.5,0-0.8-0.1c-0.5-0.1-1-0.3-1.4-0.6c-0.3-0.1-0.6-0.3-0.9-0.4
					c-0.6-0.2-1.3-0.1-1.6,0.3c-0.1,0.2-0.4,0.3-0.7,0.2c-0.2-0.1-0.3-0.4-0.2-0.7c0.5-1,1.8-1.1,2.8-0.8c0.4,0.1,0.7,0.3,1,0.5
					c0.4,0.2,0.8,0.4,1.2,0.5c0.8,0.2,1.7-0.1,2.6-0.4c3.6-1.1,7.3-1.8,11-2.1l0.2,0c0.9-0.1,1.7-0.1,2.4-0.4
					c0.3-0.1,0.6-0.3,0.9-0.5c0.5-0.3,1.1-0.6,1.7-0.7c0.6-0.1,1.2,0,1.8,0c0.2,0,0.4,0.1,0.6,0.1c1.1,0.1,2.1-0.1,3.3-0.3
					c0.3-0.1,0.7-0.1,1-0.2c2.2-0.3,4.6-0.3,6.8-0.3c3.4,0,6.5,0,9.6-1c0.3-0.1,0.5,0,0.6,0.3c0.1,0.3,0,0.5-0.3,0.6
					c-5.3,1.8-11.1,0.6-16.6,1.4c-0.3,0-0.6,0.1-1,0.2c-1.1,0.2-2.3,0.4-3.5,0.3c-0.2,0-0.4,0-0.7-0.1c-0.5-0.1-1-0.1-1.5-0.1
					c-0.5,0.1-0.9,0.3-1.4,0.6c-0.3,0.2-0.7,0.4-1,0.5c-0.9,0.4-1.8,0.4-2.7,0.5l-0.2,0c-3.6,0.3-7.2,0.9-10.6,2
					C475.2,314.4,474.4,314.7,473.6,314.7z"/>
			</g>
			<g>
				<path class="st30" d="M475.2,319c-0.2,0-0.4,0-0.6,0c-0.3,0-0.5-0.3-0.4-0.6s0.3-0.5,0.6-0.4c0.9,0.1,1.8-0.1,2.7-0.3
					c1.1-0.3,2.3-0.5,3.5-0.3c0.3,0.1,0.6,0.2,0.9,0.3c0.2,0.1,0.5,0.2,0.7,0.2c0.8,0.2,1.8,0.1,2.6,0c9.1-1.3,18.3-2.4,27.5-3.3
					c4.5-0.5,8.2-0.8,12,0.1c0.3,0.1,0.4,0.3,0.4,0.6s-0.3,0.4-0.6,0.4c-3.9-0.8-8-0.4-11.7,0c-9.1,0.9-18.3,2-27.4,3.3
					c-0.9,0.1-2,0.3-3,0c-0.3-0.1-0.5-0.2-0.8-0.2c-0.2-0.1-0.5-0.2-0.7-0.2c-1-0.2-1.9,0-3,0.3C476.9,318.9,476.1,319,475.2,319z"
					/>
			</g>
			<g>
				<path class="st30" d="M485,328.8c-0.2,0-0.5-0.2-0.5-0.4c0-0.3,0.1-0.5,0.4-0.6l9.8-1.6c0.1,0,0.3,0,0.4,0.1
					c0.1,0.1,0.2,0.2,0.2,0.4l0,0.7c1,0.2,2-0.1,3-0.4l0.4-0.1c3.4-0.9,6.8-1.2,10.2-1.4l26.1-2.1c0.2,0,0.5,0.2,0.5,0.5
					c0,0.3-0.2,0.5-0.5,0.5l-26.1,2.1c-3.3,0.3-6.8,0.5-10,1.4l-0.3,0.1c-1.3,0.4-2.6,0.7-3.9,0.3c-0.2-0.1-0.4-0.3-0.4-0.5l0-0.5
					L485,328.8C485.1,328.8,485.1,328.8,485,328.8z"/>
			</g>
		</g>
	</g>
	<polygon class="st31" points="489.7,316.8 500.3,313.4 496.4,322.7 	"/>
	<g class="st10">
		<path class="st32" d="M431.2,378.3c-1.3,0-2.5-0.5-3.4-1.5c-1.6-1.9-1.4-4.7,0.4-6.4l61.2-53.4c1.9-1.6,4.7-1.4,6.4,0.4
			c1.6,1.9,1.4,4.7-0.4,6.4l-61.2,53.4C433.3,378,432.3,378.3,431.2,378.3z"/>
	</g>
</g>
</svg>
